<?xml version="1.0" standalone="no"?>
<!DOCTYPE svg PUBLIC "-//W3C//DTD SVG 20010904//EN"
 "http://www.w3.org/TR/2001/REC-SVG-20010904/DTD/svg10.dtd">
<svg version="1.0" xmlns="http://www.w3.org/2000/svg"
 width="500.000000pt" height="500.000000pt" viewBox="0 0 500.000000 500.000000"
 preserveAspectRatio="xMidYMid meet">
<metadata>
Created by potrace 1.14, written by Peter Selinger 2001-2017
</metadata>
<g transform="translate(0.000000,500.000000) scale(0.100000,-0.100000)"
fill="#000000" stroke="none">
<path d="M4195 4970 c-16 -4 -25 -8 -20 -9 6 -1 -1 -8 -15 -16 -14 -8 -21 -14
-16 -15 12 0 -42 -50 -54 -50 -5 0 -6 -7 -3 -17 4 -11 3 -14 -5 -9 -7 4 -27
-9 -48 -31 -21 -21 -41 -37 -45 -36 -5 2 -5 -5 -2 -15 3 -9 3 -14 -1 -10 -4 4
-32 -17 -62 -46 -29 -29 -55 -52 -57 -50 -2 2 -12 -6 -23 -18 -10 -13 -12 -17
-4 -10 8 6 19 12 25 12 5 0 -2 -8 -18 -18 -15 -10 -25 -21 -21 -24 3 -4 0 -16
-6 -28 -7 -12 -8 -20 -3 -17 5 3 9 -3 9 -13 0 -13 -4 -16 -12 -9 -8 6 -10 2
-9 -16 2 -14 -1 -25 -6 -25 -4 0 -5 -7 -2 -17 5 -12 3 -14 -8 -9 -8 4 -6 1 4
-7 15 -13 16 -15 2 -21 -8 -3 -15 -10 -15 -16 0 -6 4 -9 9 -6 14 9 0 -32 -15
-45 -12 -9 -12 -15 -2 -27 11 -14 10 -15 -7 -8 -16 6 -17 5 -8 -5 10 -10 10
-16 0 -28 -9 -12 -9 -13 0 -7 9 5 11 2 7 -8 -3 -9 -9 -14 -13 -12 -3 2 -6 -20
-5 -49 0 -30 -4 -51 -8 -49 -5 3 -5 10 -2 16 4 6 2 8 -4 5 -11 -8 -11 -25 1
-44 4 -6 2 -15 -4 -19 -8 -5 -9 -3 -4 6 5 9 4 11 -4 6 -9 -6 -9 -11 -1 -21 8
-9 8 -15 0 -20 -6 -3 -8 -11 -5 -16 4 -5 1 -9 -5 -9 -7 0 -9 -8 -5 -21 4 -13
3 -19 -2 -16 -5 4 -10 0 -10 -8 0 -8 5 -15 11 -15 6 0 3 -7 -7 -14 -12 -9 -14
-16 -8 -21 8 -4 7 -13 -1 -28 -16 -28 -16 -40 -3 -49 6 -5 2 -8 -9 -8 -15 0
-16 -3 -7 -14 9 -11 9 -16 0 -22 -8 -5 -9 -3 -4 6 5 9 4 11 -4 6 -9 -6 -9 -11
0 -22 9 -11 8 -15 -6 -20 -13 -5 -14 -9 -3 -15 10 -7 10 -9 0 -9 -10 0 -10 -5
-2 -20 6 -11 7 -20 3 -19 -20 3 -27 -2 -13 -11 11 -7 11 -10 2 -10 -7 0 -10
-4 -7 -10 3 -5 0 -10 -7 -10 -9 0 -9 -3 2 -10 8 -5 10 -10 4 -10 -7 0 -10 -13
-9 -31 2 -18 -3 -33 -11 -36 -7 -2 -10 -12 -7 -20 5 -12 3 -14 -8 -8 -12 8
-12 6 0 -8 11 -14 11 -17 0 -17 -11 0 -11 -2 1 -10 11 -7 11 -10 2 -10 -7 0
-11 -4 -8 -9 4 -5 1 -11 -5 -13 -7 -2 -13 -19 -14 -37 -2 -23 0 -29 6 -20 5 8
9 11 9 6 0 -9 -20 -45 -40 -72 -14 -18 -14 -19 3 -6 16 13 17 12 8 -11 -5 -14
-7 -29 -4 -32 4 -3 1 -6 -6 -6 -7 0 -10 -4 -6 -9 3 -5 1 -13 -5 -16 -8 -5 -7
-12 2 -23 11 -13 11 -14 -1 -7 -11 6 -13 4 -8 -7 3 -9 -1 -27 -8 -41 -12 -23
-11 -26 3 -30 15 -4 14 -5 -1 -6 -10 0 -15 -5 -12 -11 3 -5 2 -10 -3 -10 -5 0
-7 -11 -5 -24 3 -13 0 -27 -7 -31 -8 -5 -8 -11 2 -23 8 -9 8 -13 2 -9 -7 4
-15 0 -18 -9 -9 -23 -8 -26 7 -19 6 4 3 -1 -7 -9 -13 -10 -15 -16 -7 -16 10 0
11 -3 2 -13 -6 -8 -8 -17 -4 -20 3 -4 0 -13 -7 -22 -7 -8 -9 -15 -5 -15 4 0 3
-6 -4 -13 -8 -10 -7 -17 2 -27 7 -8 8 -11 1 -7 -7 4 -14 -4 -17 -21 -3 -15 -9
-38 -13 -51 -6 -19 -4 -22 7 -16 11 7 12 6 2 -7 -7 -8 -9 -19 -5 -24 4 -4 0
-3 -9 4 -13 9 -16 9 -16 -3 0 -8 5 -15 10 -15 5 0 4 -7 -3 -15 -6 -8 -9 -19
-5 -25 3 -5 2 -10 -3 -10 -5 0 -12 -9 -15 -20 -3 -11 -2 -18 2 -15 4 2 8 -2 8
-10 0 -8 -5 -11 -10 -8 -6 4 -8 -3 -5 -15 4 -14 2 -20 -5 -15 -6 4 -8 0 -4 -9
3 -9 0 -21 -6 -28 -9 -10 -9 -11 3 -5 10 5 8 1 -4 -13 -11 -12 -16 -25 -13
-29 4 -3 7 -1 7 5 0 7 5 12 12 12 6 0 4 -7 -5 -18 -10 -10 -14 -22 -10 -25 3
-4 0 -7 -8 -7 -12 0 -12 -2 1 -10 12 -8 12 -10 -4 -16 -14 -5 -15 -9 -4 -15 9
-6 10 -9 1 -9 -7 0 -10 -7 -6 -17 4 -10 2 -14 -5 -9 -7 4 -9 -2 -6 -20 3 -14
1 -23 -5 -20 -5 4 -7 -3 -3 -16 3 -12 1 -19 -5 -15 -12 7 -11 -23 2 -42 5 -10
4 -12 -3 -7 -8 5 -12 -3 -12 -23 0 -16 -5 -33 -12 -37 -7 -5 -8 -3 -3 6 6 9 4
11 -4 5 -8 -4 -9 -11 -3 -17 13 -13 3 -59 -12 -51 -6 4 -4 -2 4 -12 8 -10 10
-16 4 -12 -7 4 -15 0 -18 -9 -3 -8 -2 -12 4 -9 6 3 7 -1 4 -9 -3 -9 -11 -16
-17 -16 -6 0 -2 -7 9 -16 10 -8 15 -13 9 -11 -14 7 -48 -40 -35 -48 8 -5 7
-12 -2 -23 -11 -13 -11 -15 2 -7 12 6 13 5 3 -6 -7 -7 -13 -24 -13 -37 0 -15
-4 -21 -12 -16 -7 5 -8 3 -4 -5 5 -7 0 -19 -10 -27 -11 -9 -14 -13 -7 -10 6 4
14 2 18 -4 3 -5 1 -10 -5 -10 -6 0 -9 -4 -6 -9 4 -5 0 -12 -6 -14 -9 -4 -9 -6
1 -6 11 -1 10 -5 -5 -17 -10 -8 -13 -13 -6 -9 6 3 12 1 12 -4 0 -6 -5 -11 -11
-11 -6 0 -8 -7 -5 -16 3 -8 2 -12 -4 -9 -6 3 -10 1 -10 -4 0 -6 6 -11 13 -12
6 0 3 -4 -8 -9 -11 -5 -14 -9 -6 -9 11 -1 11 -5 -1 -23 -8 -13 -14 -33 -13
-45 1 -16 -2 -20 -10 -13 -7 6 -11 3 -11 -10 0 -10 3 -17 7 -15 3 3 4 -7 1
-20 -2 -14 -9 -25 -14 -25 -5 0 -6 5 -2 12 4 6 3 8 -3 5 -6 -4 -10 -26 -9 -51
1 -33 -2 -42 -11 -35 -8 7 -11 3 -9 -15 2 -15 -1 -26 -5 -26 -5 0 -8 -3 -8 -7
1 -5 1 -15 0 -23 -1 -13 -2 -13 -11 0 -6 9 -10 10 -10 3 0 -6 5 -15 10 -18 6
-4 4 -12 -5 -21 -8 -9 -16 -22 -16 -30 -1 -8 -2 -18 -3 -24 0 -5 -10 -16 -21
-23 -17 -13 -22 -13 -42 0 -13 9 -23 20 -23 25 0 5 -10 19 -22 30 -13 11 -17
17 -11 13 9 -4 11 -1 7 9 -3 9 -11 13 -18 9 -6 -3 -6 -1 2 8 6 7 12 18 12 24
0 5 -5 3 -10 -5 -8 -12 -10 -10 -11 10 -1 14 -1 28 0 33 0 4 -4 7 -10 7 -5 0
-7 5 -4 10 3 5 0 10 -7 10 -10 0 -10 2 1 9 10 7 11 9 1 13 -16 5 -23 38 -8 38
5 0 2 7 -7 16 -13 14 -14 19 -3 25 10 7 10 9 1 9 -7 0 -13 5 -13 11 0 5 6 7
13 4 6 -4 3 1 -7 9 -15 12 -16 16 -5 16 10 1 9 4 -4 11 -14 8 -16 14 -6 25 8
10 8 14 1 14 -6 0 -9 7 -6 15 3 8 -1 29 -10 46 -12 23 -13 35 -5 40 8 5 8 8 0
14 -7 4 -10 20 -7 36 2 16 0 29 -5 29 -4 0 -6 7 -3 15 4 8 11 12 17 8 6 -3 7
-1 3 6 -4 6 -11 9 -16 6 -4 -3 -10 4 -13 15 -3 13 -1 18 6 13 7 -4 8 0 3 13
-4 10 -9 24 -10 31 -1 7 -5 16 -9 19 -4 4 -2 13 4 21 9 10 8 13 -1 13 -10 0
-10 3 -1 14 9 11 9 16 0 22 -8 5 -9 3 -4 -6 6 -9 4 -11 -5 -5 -10 6 -9 11 5
22 17 12 17 13 2 13 -9 0 -17 5 -17 11 0 5 4 7 10 4 6 -3 7 1 4 9 -3 9 -11 16
-16 16 -6 0 -5 7 3 16 8 10 9 18 3 22 -6 4 -11 29 -12 57 -1 27 -7 52 -12 53
-6 2 -3 11 7 19 10 8 13 12 6 9 -6 -4 -16 7 -22 24 -5 17 -7 29 -3 26 4 -2 8
4 8 14 0 10 -3 17 -6 15 -3 -2 -7 12 -8 31 -4 63 -6 73 -16 67 -5 -4 -6 1 -2
12 4 11 2 22 -6 27 -9 5 -7 8 7 8 16 0 17 2 5 9 -8 6 -17 8 -21 5 -4 -2 -5 9
-3 26 3 19 1 30 -7 30 -8 0 -8 4 1 15 11 13 7 19 -11 17 -3 -1 -4 9 -2 22 3
13 0 27 -6 30 -6 4 -11 13 -11 19 0 7 4 6 10 -3 6 -9 10 -10 10 -3 0 6 -4 15
-10 18 -5 3 -10 15 -10 26 0 10 -5 19 -12 19 -9 0 -9 3 0 12 9 9 7 17 -11 37
-12 13 -15 20 -7 16 11 -6 10 -3 -2 12 -21 23 -24 37 -5 27 6 -4 2 4 -9 17
-12 13 -19 30 -17 37 3 7 -3 12 -14 12 -15 0 -16 2 -3 10 11 7 11 10 2 10 -7
0 -10 5 -7 10 3 6 1 10 -5 10 -6 0 -8 5 -5 10 3 6 1 10 -5 10 -6 0 -8 5 -5 10
3 6 1 10 -6 10 -6 0 -9 8 -6 19 3 14 1 18 -9 14 -10 -4 -14 3 -14 21 0 15 -5
25 -12 24 -7 -2 -12 4 -13 12 0 8 -5 15 -12 15 -6 0 -15 4 -20 9 -5 5 -3 6 5
2 21 -12 13 5 -12 29 -14 13 -22 26 -19 29 4 3 0 6 -8 6 -8 0 -20 9 -27 20 -7
11 -19 20 -28 20 -8 0 -12 5 -9 10 3 6 -1 10 -9 10 -9 0 -16 3 -16 8 0 4 -14
13 -30 20 -18 9 -27 18 -23 25 4 7 -1 6 -10 -2 -13 -11 -17 -11 -17 -1 0 8 -3
11 -6 7 -4 -3 -13 0 -21 8 -18 18 -37 20 -27 3 6 -10 4 -10 -8 0 -9 7 -22 12
-30 11 -28 -3 -39 1 -32 14 5 8 2 8 -9 -2 -12 -9 -17 -10 -17 -2 0 7 -5 9 -10
6 -6 -4 -8 -10 -5 -14 2 -5 -7 -6 -20 -3 -15 2 -22 9 -18 16 4 6 0 5 -9 -2
-13 -10 -17 -10 -21 0 -4 9 -6 9 -6 -2 -1 -11 -12 -15 -39 -14 -20 0 -45 -5
-56 -12 -10 -7 -25 -10 -32 -7 -8 3 -14 0 -14 -7 0 -7 -7 -10 -15 -6 -8 3 -15
1 -15 -4 0 -6 -3 -9 -7 -8 -14 4 -53 -13 -53 -23 0 -5 -3 -9 -7 -8 -19 3 -52
-14 -46 -24 4 -6 0 -8 -11 -4 -11 4 -15 3 -11 -4 4 -6 -2 -13 -13 -16 -11 -2
-25 -16 -33 -29 -8 -16 -18 -23 -28 -19 -8 3 -12 3 -8 -1 4 -5 -3 -14 -15 -22
-19 -11 -20 -12 -3 -8 20 6 20 6 1 -9 -11 -8 -24 -15 -29 -15 -4 0 -5 -5 -2
-10 3 -6 -1 -13 -9 -16 -9 -3 -13 -10 -10 -15 3 -5 -2 -9 -11 -9 -9 0 -14 -4
-11 -9 3 -5 -1 -14 -9 -21 -8 -7 -13 -16 -10 -20 3 -4 -2 -11 -11 -14 -9 -4
-14 -13 -10 -22 3 -8 2 -13 -3 -10 -5 3 -15 -2 -22 -11 -12 -14 -12 -16 1 -9
9 4 8 2 -2 -7 -10 -8 -15 -17 -11 -20 3 -4 1 -7 -6 -7 -7 0 -9 -4 -6 -10 3 -5
1 -10 -5 -10 -6 0 -8 -5 -4 -12 5 -8 2 -9 -11 -4 -14 5 -15 4 -7 -7 9 -10 6
-17 -9 -30 -14 -12 -18 -24 -13 -39 4 -14 2 -18 -5 -14 -6 4 -11 1 -11 -8 0
-8 -6 -17 -12 -19 -10 -4 -10 -6 0 -6 7 -1 4 -9 -8 -21 -12 -12 -18 -25 -15
-30 4 -6 0 -10 -7 -10 -9 0 -9 -3 2 -10 13 -8 12 -10 -4 -10 -11 0 -16 -3 -13
-7 4 -3 1 -13 -6 -21 -10 -13 -9 -15 3 -8 9 4 8 2 -2 -7 -10 -8 -15 -17 -11
-20 3 -4 1 -7 -7 -7 -10 0 -10 -4 1 -17 10 -11 10 -14 2 -9 -8 4 -13 1 -13 -9
0 -9 -4 -14 -9 -11 -4 3 -7 -5 -7 -17 1 -12 -5 -31 -13 -41 -14 -17 -14 -18
-1 -12 9 5 8 2 -2 -7 -10 -8 -15 -17 -11 -20 3 -4 0 -13 -6 -21 -7 -8 -10 -20
-6 -26 3 -5 1 -10 -5 -10 -7 0 -10 -7 -6 -15 3 -8 1 -15 -4 -15 -5 0 -6 -7 -3
-17 4 -10 2 -14 -5 -9 -6 3 -13 2 -17 -4 -3 -5 -2 -10 4 -10 6 0 8 -7 5 -15
-4 -8 -11 -12 -18 -8 -6 4 -5 -1 3 -10 9 -12 10 -17 2 -17 -7 0 -9 -4 -6 -10
3 -5 2 -10 -4 -10 -5 0 -8 -9 -6 -20 2 -11 0 -20 -5 -20 -5 0 -6 -7 -3 -17 4
-10 2 -14 -4 -10 -6 4 -10 -6 -11 -25 0 -17 -7 -35 -14 -39 -10 -7 -10 -9 2
-9 12 0 13 -2 1 -9 -8 -5 -10 -14 -6 -22 6 -9 4 -11 -8 -6 -11 4 -14 2 -10 -8
3 -8 10 -12 17 -8 6 4 5 -1 -3 -10 -7 -9 -17 -14 -22 -11 -5 3 -5 -7 1 -21 8
-20 7 -27 -5 -31 -11 -5 -12 -11 -5 -24 8 -15 6 -21 -7 -29 -10 -6 -13 -11 -8
-11 6 0 3 -5 -5 -10 -13 -9 -13 -11 0 -20 12 -8 13 -10 1 -10 -8 0 -12 -3 -8
-6 3 -4 0 -22 -8 -41 -8 -19 -12 -39 -9 -44 3 -5 0 -9 -6 -9 -6 0 -8 -5 -5
-10 4 -6 1 -17 -5 -25 -7 -8 -9 -15 -4 -15 5 0 2 -5 -6 -10 -11 -7 -11 -10 -2
-10 9 0 10 -5 4 -17 -5 -10 -8 -26 -7 -36 2 -9 0 -15 -5 -12 -4 3 -11 -2 -14
-11 -10 -25 -7 -36 7 -28 9 6 9 5 0 -7 -11 -13 -24 -64 -26 -96 0 -7 -3 -13
-7 -13 -4 0 -6 -10 -5 -22 1 -13 -5 -29 -14 -36 -15 -11 -15 -12 0 -7 9 4 16
0 16 -9 0 -8 -6 -12 -12 -9 -7 2 -12 -5 -12 -19 -1 -60 -4 -79 -12 -74 -12 8
-8 -27 4 -36 6 -5 3 -8 -6 -8 -16 0 -19 -25 -6 -47 4 -6 3 -14 -3 -18 -6 -4
-7 -11 -4 -17 4 -7 2 -8 -4 -4 -11 7 -18 -26 -13 -63 2 -7 -2 -10 -9 -6 -9 6
-9 2 -2 -12 7 -12 7 -24 0 -36 -19 -35 -27 -77 -15 -77 8 0 8 -3 2 -8 -5 -4
-12 -16 -13 -27 -2 -11 -9 -23 -15 -27 -9 -6 -8 -8 2 -8 11 0 11 -3 0 -17 -12
-15 -12 -16 1 -8 12 7 13 6 4 -6 -10 -13 -14 -34 -17 -86 0 -12 -5 -19 -10
-16 -6 4 -8 -6 -4 -23 3 -19 0 -33 -11 -42 -10 -7 -11 -10 -3 -6 11 5 13 3 8
-9 -4 -10 -10 -24 -14 -34 -5 -12 -3 -14 8 -9 10 6 10 4 -1 -6 -9 -7 -15 -29
-14 -51 0 -20 -4 -37 -9 -37 -5 0 -7 -11 -5 -25 3 -14 1 -25 -5 -25 -6 0 -7
-3 -4 -7 4 -3 2 -12 -4 -19 -6 -8 -7 -14 0 -18 14 -9 2 -37 -13 -30 -6 3 -2
-2 8 -10 16 -13 17 -16 4 -16 -11 0 -15 -6 -11 -19 3 -10 0 -28 -6 -38 -7 -14
-7 -24 2 -33 9 -10 9 -11 -2 -5 -11 6 -13 0 -9 -28 3 -26 1 -33 -7 -27 -8 7
-11 -1 -10 -25 1 -19 -2 -35 -7 -35 -5 0 -6 -6 -1 -12 4 -7 8 -16 8 -20 0 -12
15 -21 15 -9 0 9 5 9 20 1 15 -8 20 -8 20 1 0 9 3 9 14 0 7 -6 21 -9 30 -5 10
4 16 1 16 -7 0 -11 2 -11 9 0 8 13 12 13 27 0 11 -9 15 -9 10 -1 -4 6 -3 12 3
12 5 0 12 -6 14 -12 3 -7 6 -4 7 7 1 19 1 19 11 2 8 -14 14 -16 25 -6 10 8 14
9 14 0 0 -8 6 -9 18 -2 16 9 24 11 38 11 4 0 1 6 -5 14 -9 10 -8 16 4 26 10 8
12 17 6 28 -6 11 -4 20 7 30 10 7 11 10 3 6 -10 -5 -12 -3 -5 7 5 8 9 17 10
22 1 4 3 10 4 15 1 4 1 17 0 30 -1 12 3 22 9 22 6 0 11 7 11 16 0 9 -5 13 -12
9 -7 -4 -5 0 6 9 10 8 15 20 11 26 -4 6 -1 18 7 27 11 14 11 16 -2 8 -12 -7
-13 -6 -3 7 7 8 10 18 6 21 -3 4 0 7 8 8 8 0 6 4 -6 9 -16 7 -17 9 -3 9 24 1
31 17 17 42 -8 16 -8 20 0 14 8 -4 10 2 7 19 -3 14 0 29 6 32 7 5 8 2 3 -7 -5
-8 -4 -11 0 -6 10 9 15 48 5 42 -4 -2 -7 2 -7 10 0 8 5 11 10 8 6 -4 8 5 5 21
-4 19 -1 26 11 26 9 0 12 3 6 8 -13 9 -19 35 -6 28 13 -8 19 24 9 51 -4 13 -4
22 0 22 20 -3 23 3 11 18 -12 14 -12 16 0 8 11 -6 13 -3 9 13 -4 12 -2 22 4
22 5 0 6 5 3 10 -3 6 0 10 7 10 8 0 9 3 3 8 -16 12 -16 32 0 32 8 0 15 5 15
11 0 5 -4 8 -8 5 -5 -3 -9 1 -9 9 0 8 5 11 10 8 6 -4 8 0 4 9 -3 9 0 21 6 27
8 8 7 11 -3 11 -9 0 -8 5 6 16 10 8 14 13 7 10 -6 -4 -14 -2 -18 4 -3 5 0 10
8 10 13 0 15 5 18 55 1 14 6 25 11 25 6 0 4 8 -3 17 -10 11 -10 14 -1 9 6 -4
12 -4 13 1 6 77 10 98 21 105 11 6 10 8 0 8 -7 0 -10 5 -7 10 4 6 9 8 13 6 4
-2 6 12 6 32 -1 21 3 42 8 49 5 7 7 17 3 23 -3 5 -1 10 5 10 6 0 8 5 4 11 -3
6 0 15 7 20 12 7 12 9 0 9 -11 0 -11 3 -1 15 7 8 17 12 23 8 6 -3 7 -1 3 6 -4
6 -11 9 -15 7 -4 -3 -8 1 -8 9 0 8 4 12 8 10 4 -3 10 2 13 11 9 23 8 26 -6 18
-7 -4 -6 1 3 12 9 10 14 25 12 32 -3 6 0 12 5 12 5 0 8 14 6 31 -3 20 0 28 7
23 8 -4 9 1 4 16 -5 15 -3 20 3 16 7 -4 9 3 6 19 -2 14 0 25 5 25 6 0 7 7 4
17 -4 9 -2 14 3 10 10 -6 12 1 18 62 1 19 8 37 14 39 7 2 12 8 12 13 0 6 -6 7
-13 3 -6 -4 -3 2 7 14 14 17 16 22 5 22 -9 0 -4 8 11 21 20 16 21 20 6 15 -19
-7 -19 -6 -2 13 11 12 16 27 12 37 -5 12 -2 15 10 10 14 -5 15 -4 4 9 -8 10
-9 15 -1 15 6 0 10 3 10 8 -1 4 0 10 1 15 4 12 7 26 9 38 0 5 7 7 13 3 9 -5 9
-2 -1 9 -8 10 -9 17 -3 17 6 0 9 9 7 21 -3 15 0 19 10 15 8 -3 15 -1 15 4 0 6
-5 10 -11 10 -6 0 -3 7 5 16 9 8 14 20 11 25 -4 5 -1 9 6 9 7 0 9 3 6 7 -4 3
-1 13 6 21 10 13 9 14 -3 8 -8 -4 -4 2 10 14 14 12 18 18 10 14 -12 -6 -13 -4
-2 7 6 7 12 21 12 32 0 11 4 15 12 11 8 -5 9 -2 5 9 -3 10 -2 17 4 17 6 0 7 5
4 10 -3 6 -1 10 6 10 6 0 9 8 6 19 -3 15 -1 18 11 14 10 -4 13 -2 8 5 -4 7 -2
12 4 12 6 0 8 5 4 11 -3 6 -2 14 4 18 5 3 21 26 35 51 14 25 30 44 36 43 6 -2
8 4 5 11 -3 8 4 19 16 26 11 6 18 15 15 20 -3 5 4 11 15 15 11 4 18 11 15 16
-6 8 9 13 29 10 5 -1 6 5 3 13 -5 11 2 18 21 22 15 4 30 11 33 17 10 15 120
15 126 0 3 -7 14 -13 25 -13 10 0 16 -4 13 -10 -3 -5 -1 -10 6 -10 17 0 50
-41 42 -53 -3 -5 -1 -7 4 -4 14 9 37 -19 27 -34 -4 -8 -3 -9 4 -5 11 6 17 -6
13 -27 -1 -4 6 -10 15 -14 13 -5 13 -7 2 -14 -10 -7 -10 -9 0 -9 6 0 12 -9 12
-20 0 -11 4 -20 8 -20 5 0 9 -6 10 -12 0 -7 4 -23 7 -35 5 -16 3 -23 -6 -24
-8 0 -4 -4 8 -9 20 -8 21 -13 13 -35 -7 -17 -7 -24 0 -20 6 4 8 -6 6 -24 -2
-17 1 -31 7 -31 5 0 3 -8 -4 -17 -10 -11 -10 -14 -1 -9 6 4 12 3 12 -3 0 -5
-6 -12 -12 -14 -9 -4 -8 -6 2 -6 11 -1 15 -10 14 -28 -1 -16 4 -34 10 -42 9
-12 8 -13 -4 -6 -12 7 -13 6 -3 -6 10 -12 10 -18 0 -29 -7 -8 -8 -11 -1 -7 7
4 14 -2 17 -13 3 -11 1 -18 -3 -15 -5 3 -11 1 -15 -5 -3 -5 0 -10 7 -10 14 0
15 -5 19 -82 1 -26 6 -45 11 -42 4 3 3 -7 -2 -21 -5 -14 -6 -24 -1 -21 5 3 12
-1 15 -10 3 -8 2 -12 -4 -9 -6 3 -10 1 -10 -4 0 -6 5 -11 11 -11 6 0 9 -9 6
-20 -3 -11 0 -23 6 -27 7 -4 3 -9 -9 -14 -18 -7 -18 -8 1 -8 17 -1 17 -3 5
-11 -9 -6 -11 -10 -3 -10 7 0 10 -7 7 -15 -4 -8 -1 -15 6 -15 10 0 10 -3 0
-15 -10 -12 -10 -15 0 -15 8 0 11 -3 8 -6 -4 -3 -2 -19 2 -35 6 -19 5 -29 -2
-29 -6 0 -5 -7 3 -16 17 -20 20 -67 5 -76 -7 -5 -3 -8 9 -8 17 0 17 -2 5 -10
-12 -8 -12 -10 5 -10 11 0 16 -4 10 -8 -14 -10 -17 -52 -4 -52 6 0 9 -7 6 -15
-4 -8 -2 -17 4 -20 5 -4 7 -11 3 -16 -3 -5 0 -17 8 -26 9 -12 9 -15 1 -9 -14
8 -18 -6 -6 -18 7 -7 10 -27 14 -84 2 -23 6 -31 16 -28 9 4 11 2 6 -7 -11 -18
-12 -36 -2 -43 5 -3 5 -13 -1 -24 -7 -13 -7 -21 2 -26 7 -5 8 -3 3 6 -5 9 -4
11 4 6 8 -6 9 -12 2 -20 -7 -8 -7 -16 -1 -22 5 -5 11 -28 12 -49 2 -22 7 -43
12 -47 5 -3 10 -15 11 -25 0 -10 5 -25 10 -32 5 -10 4 -12 -3 -7 -7 4 -12 2
-12 -3 0 -6 5 -11 11 -11 5 0 8 -4 4 -9 -3 -5 -1 -12 4 -15 5 -4 8 -17 6 -31
-1 -14 2 -25 8 -25 6 0 8 -3 4 -6 -3 -4 0 -19 9 -35 11 -22 12 -29 2 -29 -10
0 -10 -2 0 -9 8 -4 13 -11 13 -15 -3 -19 0 -27 8 -21 6 3 8 -4 6 -15 -2 -11 2
-20 8 -21 7 0 3 -4 -8 -9 -19 -8 -18 -9 4 -9 24 -1 24 -1 5 -16 -16 -13 -16
-14 -2 -9 20 7 25 -12 6 -19 -10 -4 -10 -6 0 -6 7 -1 10 -6 7 -11 -4 -6 -3 -9
2 -8 4 2 10 -1 11 -7 2 -5 9 -16 15 -24 9 -12 9 -13 0 -7 -9 5 -11 2 -7 -8 3
-9 12 -16 19 -16 7 0 12 -8 11 -17 0 -10 3 -18 7 -18 14 0 38 -55 31 -68 -5
-6 1 -5 11 3 10 8 16 10 12 3 -4 -7 0 -16 10 -22 10 -6 14 -11 9 -11 -5 0 1
-8 12 -19 12 -10 18 -21 15 -25 -4 -4 0 -4 10 0 11 4 19 0 23 -10 3 -9 14 -16
24 -16 11 0 22 -5 26 -12 5 -7 3 -8 -6 -3 -8 5 -11 4 -6 -3 4 -6 13 -9 20 -6
8 3 17 1 20 -5 4 -6 14 -7 23 -4 11 4 14 3 9 -5 -5 -9 3 -11 29 -7 23 3 33 1
29 -6 -4 -8 0 -8 14 0 10 6 29 8 41 6 11 -2 21 1 21 6 0 6 8 5 21 -2 12 -6 19
-7 15 -1 -6 11 21 25 34 17 4 -3 14 3 21 12 12 14 12 16 0 8 -10 -5 -12 -4 -7
4 4 6 11 9 16 6 13 -8 41 6 33 18 -4 6 0 8 10 4 9 -3 16 -3 14 1 -1 4 24 33
57 65 32 31 55 57 50 57 -4 0 0 6 11 13 12 9 15 19 10 28 -8 12 -6 12 8 1 14
-12 16 -11 12 7 -2 12 0 21 5 21 9 0 25 40 22 53 -1 5 1 6 6 3 5 -3 19 13 32
36 13 23 18 38 12 34 -8 -5 -10 -2 -6 8 3 9 11 16 17 16 6 0 7 3 4 7 -4 3 -1
13 6 21 10 13 9 14 -3 7 -12 -6 -13 -5 -2 6 6 7 12 21 12 31 0 10 4 18 9 18 6
0 8 9 6 20 -2 11 0 20 5 20 4 0 7 11 5 25 -2 19 1 23 10 15 9 -8 11 -4 7 16
-3 16 -1 25 5 21 5 -3 9 2 9 11 0 56 5 73 17 66 8 -5 8 -2 -2 9 -10 13 -10 17
-1 17 7 0 10 8 7 20 -3 13 -1 18 6 13 6 -4 8 0 4 9 -3 9 0 21 6 28 9 10 9 11
-3 5 -13 -8 -13 -6 -2 8 8 9 11 20 8 25 -3 6 1 15 10 22 12 11 12 15 2 21 -10
7 -10 9 0 9 8 0 11 9 8 24 -3 17 -1 23 8 20 7 -3 13 2 13 10 0 8 -4 13 -9 10
-4 -3 -5 2 -2 10 3 9 11 16 18 17 6 0 2 4 -9 9 -15 7 -16 9 -4 9 11 1 15 9 14
26 -2 14 2 28 7 32 7 4 8 1 3 -8 -5 -8 -4 -11 0 -6 10 9 15 48 5 42 -4 -2 -7
2 -7 10 0 8 4 12 8 10 9 -6 22 43 14 54 -3 5 2 12 10 15 13 4 14 10 5 26 -8
15 -8 20 2 20 9 0 9 3 -2 10 -8 5 -10 10 -5 10 6 0 16 9 23 21 8 12 9 18 3 14
-6 -3 -11 -2 -11 4 0 5 5 13 11 17 8 4 7 9 -2 15 -9 5 -10 9 -2 9 6 0 10 13 9
29 -2 22 2 28 14 23 13 -5 13 -4 0 13 -11 14 -11 17 -1 11 10 -7 12 -3 6 14
-4 13 -3 20 2 17 5 -3 7 7 5 25 -3 20 -1 29 6 24 7 -4 9 3 6 20 -3 14 -1 23 4
20 5 -3 7 6 4 19 -3 17 0 25 9 25 11 0 11 2 -1 10 -13 9 -13 10 0 10 13 0 13
1 0 10 -13 9 -13 10 0 10 11 0 15 11 15 42 0 30 4 42 13 40 10 -2 10 2 2 18
-8 15 -8 20 1 20 7 0 9 3 6 7 -4 3 -1 13 6 21 9 13 9 14 0 8 -7 -4 -13 -2 -13
3 0 6 5 11 11 11 8 0 7 6 -2 17 -11 13 -11 15 -1 9 9 -6 12 -3 10 10 -2 11 2
18 7 17 6 0 11 19 12 43 1 24 7 53 13 64 8 14 8 20 0 20 -6 0 -8 5 -5 10 4 6
10 8 15 5 8 -5 8 4 -2 45 -2 9 3 14 12 12 12 -3 12 -1 3 9 -9 9 -9 16 0 30 9
14 9 21 -1 31 -9 9 -7 17 11 37 12 13 15 20 7 16 -12 -7 -13 -6 -3 6 10 12 10
18 0 28 -9 10 -9 11 4 6 10 -4 16 0 16 9 0 8 -5 12 -11 9 -6 -4 -5 1 3 10 7 9
10 17 5 17 -4 0 -3 5 4 12 16 16 16 41 0 32 -7 -4 -3 3 10 15 23 22 30 37 12
26 -5 -3 -10 1 -10 9 0 9 6 16 13 16 8 0 7 4 -3 10 -14 9 -7 15 14 11 5 -1 4
5 -4 13 -8 10 -9 16 -2 16 7 0 9 7 5 17 -4 11 -3 14 6 9 15 -10 11 25 -4 36
-6 5 -5 8 2 8 7 0 10 7 7 15 -4 8 -1 15 5 15 6 0 11 5 11 11 0 5 -6 7 -12 4
-7 -4 -4 1 6 9 11 9 15 16 10 16 -5 0 -10 9 -10 19 0 16 3 18 15 8 12 -10 13
-9 3 10 -9 16 -9 23 1 26 8 4 8 6 -2 6 -11 1 -10 5 5 16 14 11 16 15 4 15 -12
0 -11 3 3 11 18 10 18 11 0 32 -10 11 -13 17 -7 14 7 -4 14 0 18 8 3 8 0 15
-6 15 -7 0 -3 7 8 16 14 11 16 17 6 21 -10 4 -9 9 5 20 10 8 12 12 6 8 -7 -3
-13 -1 -13 4 0 6 5 11 11 11 8 0 8 4 0 14 -9 11 -9 16 0 22 8 5 9 3 4 -6 -6
-9 -4 -11 4 -5 9 5 10 10 2 18 -7 7 -7 16 0 28 5 10 9 22 8 26 -4 22 2 34 14
27 9 -6 9 -4 -1 8 -10 12 -10 18 -1 23 8 6 7 10 -2 16 -9 6 -10 9 -2 9 6 0 11
9 10 20 -1 11 -6 20 -11 20 -5 0 -6 3 -3 6 4 4 14 1 23 -7 16 -13 16 -12 6 8
-10 18 -9 22 6 26 16 4 16 5 0 6 -22 1 -22 10 -3 35 10 13 11 24 5 36 -7 14
-4 22 13 34 15 10 16 14 4 10 -13 -5 -16 -2 -11 10 3 9 10 14 14 11 5 -3 5 8
0 24 -7 25 -6 29 7 24 13 -5 13 -3 4 15 -11 21 -8 27 13 23 5 -1 4 5 -4 13 -9
11 -9 16 -1 16 9 0 9 5 1 20 -9 17 -8 20 7 20 14 0 15 2 4 9 -9 6 -10 11 -2
15 6 4 9 12 6 17 -4 5 -1 9 6 9 8 0 8 4 -1 15 -7 8 -8 15 -3 15 6 0 8 12 5 26
-3 19 -1 25 7 20 14 -9 11 16 -4 26 -5 4 1 11 14 16 22 8 22 9 6 16 -17 6 -17
7 0 26 17 19 17 20 0 20 -18 0 -18 0 0 14 12 9 16 20 12 35 -3 14 0 24 9 28
12 4 12 8 -3 20 -10 8 -13 12 -6 9 17 -9 28 34 12 45 -11 7 -10 9 4 9 19 0 22
11 6 27 -8 8 -7 13 2 18 8 6 10 4 4 -5 -5 -9 -4 -11 4 -6 9 6 9 11 -1 24 -11
13 -11 14 1 7 11 -6 13 -4 8 7 -3 9 -1 20 5 26 7 7 6 17 -2 32 -7 12 -8 20 -2
16 16 -9 24 25 10 42 -10 12 -10 14 0 8 8 -5 12 0 12 14 0 14 4 19 13 14 8 -5
8 -2 -2 9 -10 13 -11 20 -2 31 9 11 9 15 0 18 -7 2 -9 10 -5 17 5 7 15 10 25
7 14 -5 14 -4 -1 7 -15 12 -16 17 -4 32 7 10 11 31 10 47 -3 19 0 27 7 22 8
-4 8 0 0 14 -9 17 -8 23 6 31 12 7 14 10 4 11 -11 0 -11 3 0 16 10 13 10 17
-2 25 -10 6 -10 9 -1 9 6 0 12 12 12 26 0 14 4 23 10 19 6 -3 10 -2 10 4 0 5
-6 11 -12 14 -10 3 -10 7 0 19 10 13 10 17 0 21 -8 3 -6 6 5 6 14 1 16 5 9 17
-11 19 -4 54 9 54 5 0 9 5 9 11 0 5 -4 7 -10 4 -6 -3 -7 1 -4 9 3 9 11 16 17
16 6 0 7 3 4 6 -3 4 -2 15 4 25 5 11 8 18 7 18 -2 -1 -16 -5 -33 -9z m-935
-2830 c0 -5 -5 -10 -11 -10 -5 0 -7 5 -4 10 3 6 8 10 11 10 2 0 4 -4 4 -10z"/>
<path d="M3745 2570 c-3 -5 1 -10 10 -10 9 0 13 5 10 10 -3 6 -8 10 -10 10 -2
0 -7 -4 -10 -10z"/>
</g>
</svg>
