<?xml version="1.0" encoding="utf-8"?>
<!-- Generator: $$$/GeneralStr/196=Adobe Illustrator 27.6.0, SVG Export Plug-In . SVG Version: 6.00 Build 0)  -->
<svg version="1.1" id="Calque_1" xmlns="http://www.w3.org/2000/svg" xmlns:xlink="http://www.w3.org/1999/xlink" x="0px" y="0px"
	 viewBox="0 0 47 47" style="enable-background:new 0 0 47 47;" xml:space="preserve">
<style type="text/css">
	.st0{display:none;}
	.st1{display:inline;}
	.st2{fill:#FFFFFF;}
</style>
<g class="st0">
	<g class="st1">
		<g>
			<path class="st2" d="M41.7,30.4c0,0-25.4-25.5-25.6-25.7c-1.1-1.1-2.6-1.6-4.2-1.5C9.1,3.4,6.7,5.7,6.7,8.4c0,2.8,2.5,4.2,4.1,4
				c1.9-0.2,3.6-1.8,3.7-3.7c0-0.6-0.4-1.2-1.1-1.2c-0.6,0-1.2,0.4-1.2,1.1c-0.1,0.8-0.8,1.6-1.6,1.6c-1,0-1.7-1-1.6-1.7
				c0-1.5,1.5-2.8,3.1-3c2.2-0.3,3.4,1.8,3.3,3.3c-0.2,2.8-2.6,5.2-5.4,5.4c-1.7,0.1-3.2-0.4-4.3-1.5C4.5,11.5,4,10,4.1,8.3
				c0-0.6-0.4-1.2-1.1-1.2c-0.6,0-1.2,0.4-1.2,1.1c-0.2,2.3,0.6,4.5,2.1,6c0.1,0.1,14.7,14.7,14.7,14.7c-0.9,0.1-1.8,0.3-2.5,0.8
				c-0.5,0.4-0.6,1.2-0.2,1.6c0.8,0.8,1.4,0.3,1.6,0.2c0.4-0.3,1.4-0.4,2.3-0.3c0,0.5-0.1,1-0.5,1.4c-0.4,0.5-0.4,1.2,0.1,1.6
				c0.2,0.2,0.9,0.6,1.6-0.1c0.5-0.5,0.8-1.2,1-1.8l8.9,8.8c2.4,2.4,7,3.7,10.7,0C45.1,37.6,44.3,33.1,41.7,30.4z M20.5,27.4
				l-11.1-11c4.6,0.5,7.8-3.8,8.1-7l10.1,10.1L20.5,27.4z M29.2,21.2l1.5,1.5L23,28L29.2,21.2z M40,39.5c-2.1,2.1-5.4,2-7.5,0
				l-9.1-9l8.8-6.2l7.8,7.8C42.3,34.3,41.9,37.6,40,39.5z"/>
		</g>
	</g>
</g>
<g class="st0">
	<g class="st1">
		<path class="st2" d="M44.1,7.3h-1.9v-2c0-0.4-0.3-0.7-0.7-0.7H26.8c-0.9,0-1.8,0.4-2.5,1c-0.7-0.6-1.6-1-2.5-1H7
			C6.6,4.7,6.3,5,6.3,5.3v2H4.4C4,7.3,3.8,7.6,3.8,7.9v23c0,1.8,1.5,3.3,3.3,3.3h12.6v5h-2.8c-0.4,0-0.7,0.3-0.7,0.7
			c0,0.4,0.3,0.7,0.7,0.7h14.9c0.4,0,0.7-0.3,0.7-0.7c0-0.4-0.3-0.7-0.7-0.7h-2.8v-3c0-0.4-0.3-0.7-0.7-0.7s-0.7,0.3-0.7,0.7v3H21
			v-5h20.5c1.8,0,3.3-1.5,3.3-3.3v-23C44.8,7.6,44.5,7.3,44.1,7.3z M43.4,8.6v18.6h-1.3V8.6H43.4z M7.6,6h14.1c0.8,0,1.5,0.4,2,1.1
			c0.1,0.2,0.3,0.3,0.5,0.3c0.2,0,0.4-0.1,0.5-0.3C25.2,6.4,26,6,26.8,6h14.1v21.3H7.6L7.6,6z M6.3,8.6v18.6H5.1V8.6H6.3z
			 M41.5,32.9H7c-1.1,0-2-0.9-2-2v-2.4h38.4V31C43.4,32.1,42.6,32.9,41.5,32.9z"/>
		<path class="st2" d="M24.3,25.9c0.4,0,0.7-0.3,0.7-0.7v-16c0-0.4-0.3-0.7-0.7-0.7s-0.7,0.3-0.7,0.7v16
			C23.6,25.6,23.9,25.9,24.3,25.9z"/>
		<path class="st2" d="M10.5,9.5h10.1c0.4,0,0.7-0.3,0.7-0.7c0-0.4-0.3-0.7-0.7-0.7H10.5c-0.4,0-0.7,0.3-0.7,0.7
			C9.9,9.2,10.2,9.5,10.5,9.5z"/>
		<path class="st2" d="M10.5,12.6h10.1c0.4,0,0.7-0.3,0.7-0.7s-0.3-0.7-0.7-0.7H10.5c-0.4,0-0.7,0.3-0.7,0.7S10.2,12.6,10.5,12.6z"
			/>
		<path class="st2" d="M10.5,15.7h5c0.4,0,0.7-0.3,0.7-0.7c0-0.4-0.3-0.7-0.7-0.7h-5c-0.4,0-0.7,0.3-0.7,0.7
			C9.9,15.4,10.2,15.7,10.5,15.7z"/>
		<path class="st2" d="M10.5,18.8h10.1c0.4,0,0.7-0.3,0.7-0.7s-0.3-0.7-0.7-0.7H10.5c-0.4,0-0.7,0.3-0.7,0.7S10.2,18.8,10.5,18.8z"
			/>
		<path class="st2" d="M10.5,21.9h10.1c0.4,0,0.7-0.3,0.7-0.7c0-0.4-0.3-0.7-0.7-0.7H10.5c-0.4,0-0.7,0.3-0.7,0.7
			C9.9,21.6,10.2,21.9,10.5,21.9z"/>
		<path class="st2" d="M10.5,25.1h5c0.4,0,0.7-0.3,0.7-0.7c0-0.4-0.3-0.7-0.7-0.7h-5c-0.4,0-0.7,0.3-0.7,0.7
			C9.9,24.8,10.2,25.1,10.5,25.1z"/>
		<path class="st2" d="M27.9,9.5H38c0.4,0,0.7-0.3,0.7-0.7c0-0.4-0.3-0.7-0.7-0.7H27.9c-0.4,0-0.7,0.3-0.7,0.7
			C27.3,9.2,27.6,9.5,27.9,9.5z"/>
		<path class="st2" d="M27.9,12.6H38c0.4,0,0.7-0.3,0.7-0.7s-0.3-0.7-0.7-0.7H27.9c-0.4,0-0.7,0.3-0.7,0.7S27.6,12.6,27.9,12.6z"/>
		<path class="st2" d="M27.9,15.7h5c0.4,0,0.7-0.3,0.7-0.7c0-0.4-0.3-0.7-0.7-0.7h-5c-0.4,0-0.7,0.3-0.7,0.7
			C27.3,15.4,27.6,15.7,27.9,15.7z"/>
		<path class="st2" d="M27.9,18.8H38c0.4,0,0.7-0.3,0.7-0.7s-0.3-0.7-0.7-0.7H27.9c-0.4,0-0.7,0.3-0.7,0.7S27.6,18.8,27.9,18.8z"/>
		<path class="st2" d="M27.9,21.9H38c0.4,0,0.7-0.3,0.7-0.7c0-0.4-0.3-0.7-0.7-0.7H27.9c-0.4,0-0.7,0.3-0.7,0.7
			C27.3,21.6,27.6,21.9,27.9,21.9z"/>
		<path class="st2" d="M27.9,25.1h5c0.4,0,0.7-0.3,0.7-0.7c0-0.4-0.3-0.7-0.7-0.7h-5c-0.4,0-0.7,0.3-0.7,0.7
			C27.3,24.8,27.6,25.1,27.9,25.1z"/>
	</g>
</g>
<g>
	<g>
		<g>
			<g>
				<path class="st2" d="M28.6,21.4l2.1-2.1l-2.1-2.1l-2.1,2.1c-0.9-0.6-1.9-1-3-1.2v-3h-3v3c-1.1,0.2-2.1,0.6-2.9,1.2l-2.1-2.1
					l-2.1,2.1l2.1,2.1c-0.6,0.9-1,1.9-1.2,3h-3v3h3c0.2,1.1,0.6,2.1,1.2,2.9l-2.1,2.1l2.1,2.1l2.1-2.1c0.9,0.6,1.9,1,3,1.2v3h3v-3
					c1.1-0.2,2.1-0.6,3-1.2l2.1,2.1l2.1-2.1l-2.1-2.1c0.6-0.9,1-1.9,1.2-2.9h3v-3h-3C29.6,23.3,29.2,22.3,28.6,21.4z M22,29.2
					c-1.8,0-3.3-1.5-3.3-3.3c0-1.8,1.5-3.3,3.3-3.3c1.8,0,3.3,1.5,3.3,3.3C25.3,27.7,23.8,29.2,22,29.2z"/>
				<path class="st2" d="M31.5,11.3c-2.6-1.7-5.8-2.7-9.1-2.7c-9.4,0-17,7.6-17,17c0,3.9,1.3,7.5,3.6,10.4l2.1-2.1
					c-1.7-2.3-2.7-5.1-2.7-8.2c0-7.7,6.3-14,14-14c2.6,0,4.9,0.7,7,2l-1.6,1.7l6.7,0.6l-0.7-6.9L31.5,11.3z"/>
				<polygon class="st2" points="44.4,25.9 40.3,21.7 40.3,24.1 34.8,24.1 34.8,27.7 40.3,27.7 40.3,30.1 				"/>
			</g>
		</g>
	</g>
</g>
</svg>
