<?xml version="1.0" encoding="utf-8"?>
<!-- Generator: $$$/GeneralStr/196=Adobe Illustrator 27.6.0, SVG Export Plug-In . SVG Version: 6.00 Build 0)  -->
<svg version="1.1" id="Calque_1" xmlns="http://www.w3.org/2000/svg" xmlns:xlink="http://www.w3.org/1999/xlink" x="0px" y="0px"
	 viewBox="0 0 93.59 93.59" style="enable-background:new 0 0 93.59 93.59;" xml:space="preserve">
<style type="text/css">
	.st0{fill-rule:evenodd;clip-rule:evenodd;fill:#FFFFFF;}
</style>
<path class="st0" d="M50.93,1.71C49.84,0.62,48.35,0,46.8,0s-3.04,0.62-4.14,1.71L1.71,42.66c-2.28,2.28-2.28,5.99,0,8.27
	c2.28,2.28,5.99,2.28,8.27,0L46.8,14.12l36.81,36.81c2.28,2.28,5.99,2.28,8.27,0c2.28-2.28,2.28-5.99,0-8.27L50.93,1.71z
	 M50.93,42.66c-1.1-1.1-2.58-1.71-4.14-1.71s-3.04,0.62-4.14,1.71L1.71,83.61c-2.28,2.28-2.28,5.99,0,8.27
	c2.28,2.28,5.99,2.28,8.27,0L46.8,55.07l36.81,36.81c2.28,2.28,5.99,2.28,8.27,0c2.28-2.28,2.28-5.99,0-8.27L50.93,42.66z"/>
</svg>
