<?xml version="1.0" encoding="utf-8"?>
<!-- Generator: $$$/GeneralStr/196=Adobe Illustrator 27.6.0, SVG Export Plug-In . SVG Version: 6.00 Build 0)  -->
<svg version="1.1" id="Calque_1" xmlns="http://www.w3.org/2000/svg" xmlns:xlink="http://www.w3.org/1999/xlink" x="0px" y="0px"
	 viewBox="0 0 111.83 128.5" style="enable-background:new 0 0 111.83 128.5;" xml:space="preserve">
<style type="text/css">
	.st0{fill:#FFFFFF;}
</style>
<g>
	<g>
		<g>
			<path class="st0" d="M55.91,42.24c-1.13,0-2.05,0.92-2.05,2.05v5.88c0,1.13,0.92,2.05,2.05,2.05s2.05-0.92,2.05-2.05v-5.88
				C57.97,43.16,57.05,42.24,55.91,42.24z"/>
		</g>
	</g>
	<g>
		<g>
			<path class="st0" d="M55.91,28.16c-1.13,0-2.05,0.92-2.05,2.05v5.88c0,1.13,0.92,2.05,2.05,2.05s2.05-0.92,2.05-2.05v-5.88
				C57.97,29.08,57.05,28.16,55.91,28.16z"/>
		</g>
	</g>
	<g>
		<g>
			<path class="st0" d="M55.91,14.08c-1.13,0-2.05,0.92-2.05,2.05v5.88c0,1.13,0.92,2.05,2.05,2.05s2.05-0.92,2.05-2.05v-5.88
				C57.97,15,57.05,14.08,55.91,14.08z"/>
		</g>
	</g>
	<g>
		<g>
			<path class="st0" d="M74.22,72.45l-5.09-2.94c-0.98-0.57-2.24-0.23-2.8,0.75c-0.57,0.98-0.23,2.23,0.75,2.8L72.17,76
				c0.32,0.19,0.68,0.28,1.02,0.28c0.71,0,1.4-0.37,1.78-1.03C75.54,74.27,75.21,73.02,74.22,72.45z"/>
		</g>
	</g>
	<g>
		<g>
			<path class="st0" d="M86.42,79.49l-5.09-2.94c-0.98-0.57-2.24-0.23-2.8,0.75c-0.57,0.98-0.23,2.23,0.75,2.8l5.09,2.94
				c0.32,0.19,0.68,0.28,1.02,0.28c0.71,0,1.4-0.37,1.78-1.03C87.73,81.31,87.4,80.06,86.42,79.49z"/>
		</g>
	</g>
	<g>
		<g>
			<path class="st0" d="M98.61,86.53l-5.09-2.94c-0.98-0.57-2.24-0.23-2.8,0.75c-0.57,0.98-0.23,2.23,0.75,2.8l5.09,2.94
				c0.32,0.19,0.68,0.28,1.02,0.28c0.71,0,1.4-0.37,1.78-1.03C99.93,88.35,99.59,87.1,98.61,86.53z"/>
		</g>
	</g>
	<g>
		<g>
			<path class="st0" d="M45.5,70.26c-0.57-0.98-1.82-1.32-2.8-0.75l-5.09,2.94c-0.98,0.57-1.32,1.82-0.75,2.8
				c0.38,0.66,1.07,1.03,1.78,1.03c0.35,0,0.7-0.09,1.02-0.28l5.09-2.94C45.73,72.5,46.06,71.24,45.5,70.26z"/>
		</g>
	</g>
	<g>
		<g>
			<path class="st0" d="M33.3,77.3c-0.57-0.98-1.82-1.32-2.8-0.75l-5.09,2.94c-0.98,0.57-1.32,1.82-0.75,2.8
				c0.38,0.66,1.07,1.03,1.78,1.03c0.35,0,0.7-0.09,1.02-0.28l5.09-2.94C33.53,79.54,33.87,78.28,33.3,77.3z"/>
		</g>
	</g>
	<g>
		<g>
			<path class="st0" d="M21.11,84.34c-0.57-0.98-1.82-1.32-2.8-0.75l-5.09,2.94c-0.98,0.57-1.32,1.82-0.75,2.8
				c0.38,0.66,1.07,1.03,1.78,1.03c0.35,0,0.7-0.09,1.02-0.28l5.09-2.94C21.34,86.58,21.68,85.32,21.11,84.34z"/>
		</g>
	</g>
	<g>
		<g>
			<path class="st0" d="M110.8,31.37L56.94,0.27c-0.63-0.37-1.42-0.37-2.05,0L1.03,31.37C0.39,31.74,0,32.42,0,33.15v62.2
				c0,0.73,0.39,1.41,1.03,1.78l53.86,31.1c0.32,0.18,0.67,0.27,1.03,0.27s0.71-0.09,1.03-0.27l53.86-31.1
				c0.63-0.37,1.03-1.04,1.03-1.78v-62.2C111.83,32.42,111.44,31.74,110.8,31.37z M53.86,122.89L6.15,95.35l2.01-1.16
				c0.98-0.57,1.32-1.82,0.75-2.8c-0.57-0.98-1.82-1.32-2.8-0.75L4.1,91.79V36.7l47.71,27.55l-2.02,1.16
				c-0.98,0.57-1.32,1.82-0.75,2.8c0.38,0.66,1.07,1.03,1.78,1.03c0.35,0,0.7-0.09,1.02-0.28l2.02-1.16V122.89z M55.91,56.32
				c-1.13,0-2.05,0.92-2.05,2.05v2.33L6.15,33.15L53.86,5.6v2.33c0,1.13,0.92,2.05,2.05,2.05s2.05-0.92,2.05-2.05V5.6l47.71,27.55
				L57.97,60.7v-2.33C57.97,57.24,57.05,56.32,55.91,56.32z M107.73,91.8l-2.02-1.16c-0.98-0.57-2.24-0.23-2.8,0.75
				c-0.57,0.98-0.23,2.23,0.75,2.8l2.01,1.16l-47.71,27.55V67.8l2.02,1.16c0.32,0.19,0.68,0.28,1.02,0.28c0.71,0,1.4-0.37,1.78-1.03
				c0.57-0.98,0.23-2.23-0.75-2.8l-2.02-1.16l47.71-27.55L107.73,91.8L107.73,91.8z"/>
		</g>
	</g>
</g>
</svg>
