<?xml version="1.0" encoding="utf-8"?>
<!-- Generator: $$$/GeneralStr/196=Adobe Illustrator 27.6.0, SVG Export Plug-In . SVG Version: 6.00 Build 0)  -->
<svg version="1.1" id="Calque_1" xmlns="http://www.w3.org/2000/svg" xmlns:xlink="http://www.w3.org/1999/xlink" x="0px" y="0px"
	 viewBox="0 0 60.98 125.54" style="enable-background:new 0 0 60.98 125.54;" xml:space="preserve">
<style type="text/css">
	.st0{fill:#FFFFFF;}
</style>
<g>
	<g>
		<g>
			<path class="st0" d="M59.11,2.29H35.5c-1.03,0-1.86,0.83-1.86,1.86v119.52c0,1.03,0.83,1.86,1.86,1.86h23.62
				c1.03,0,1.86-0.83,1.86-1.86V4.15C60.98,3.12,60.14,2.29,59.11,2.29z M40.03,121.81h-2.67V6.02h2.67V121.81z M57.25,29.22
				c-1.37,0-3.42-0.04-5.23-0.09c-0.02,0-0.04,0-0.06,0c-1,0-1.83,0.8-1.86,1.81c-0.03,1.03,0.78,1.89,1.81,1.92
				c2.38,0.07,4.04,0.11,5.22,0.11c0.04,0,0.08,0,0.12,0v4.33c-1.37,0-3.42-0.04-5.23-0.09c-0.02,0-0.04,0-0.06,0
				c-1,0-1.83,0.8-1.86,1.81c-0.03,1.03,0.78,1.89,1.81,1.92c2.38,0.07,4.04,0.11,5.22,0.11c0.04,0,0.08,0,0.12,0v3.24
				c-1.05-0.01-2.46-0.04-3.71-0.09c-1.03-0.04-1.89,0.77-1.93,1.79c-0.04,1.03,0.77,1.89,1.79,1.93c0.06,0,1.39,0.05,2.78,0.08
				c0.4,0.01,0.75,0.01,1.07,0.02v3.25c-1.05-0.01-2.46-0.04-3.71-0.09c-1.03-0.04-1.89,0.77-1.93,1.79
				c-0.04,1.03,0.77,1.89,1.79,1.93c0.06,0,1.39,0.05,2.78,0.08c0.4,0.01,0.75,0.01,1.07,0.02v3.25c-1.37,0-3.42-0.04-5.23-0.09
				c-0.02,0-0.04,0-0.06,0c-1,0-1.83,0.8-1.86,1.81c-0.03,1.03,0.78,1.89,1.81,1.92c2.38,0.07,4.04,0.11,5.22,0.11
				c0.04,0,0.08,0,0.12,0v4.33c-1.37,0-3.42-0.04-5.23-0.09c-0.02,0-0.04,0-0.06,0c-1,0-1.83,0.8-1.86,1.81
				c-0.03,1.03,0.78,1.89,1.81,1.92c2.38,0.07,4.04,0.11,5.22,0.11c0.04,0,0.08,0,0.12,0v3.24c-1.05-0.01-2.46-0.04-3.71-0.09
				c-1.03-0.04-1.89,0.77-1.93,1.79c-0.04,1.03,0.77,1.89,1.79,1.93c0.06,0,1.39,0.05,2.78,0.08c0.4,0.01,0.75,0.01,1.07,0.02v3.25
				c-1.05-0.01-2.46-0.04-3.71-0.09c-1.03-0.04-1.89,0.77-1.93,1.79c-0.04,1.03,0.77,1.89,1.79,1.93c0.06,0,1.39,0.05,2.78,0.08
				c0.4,0.01,0.75,0.01,1.07,0.02v3.25c-1.37,0-3.42-0.04-5.23-0.09c-0.02,0-0.04,0-0.06,0c-1,0-1.83,0.8-1.86,1.81
				c-0.03,1.03,0.78,1.89,1.81,1.92c2.38,0.07,4.04,0.11,5.22,0.11c0.04,0,0.08,0,0.12,0v4.33c-1.37,0-3.42-0.04-5.23-0.09
				c-0.02,0-0.04,0-0.06,0c-1,0-1.83,0.8-1.86,1.81c-0.03,1.03,0.78,1.89,1.81,1.92c2.38,0.07,4.04,0.11,5.22,0.11
				c0.04,0,0.08,0,0.12,0v3.24c-1.05-0.01-2.46-0.04-3.71-0.09c-1.03-0.04-1.89,0.77-1.93,1.79c-0.04,1.03,0.77,1.89,1.79,1.93
				c0.06,0,1.39,0.05,2.78,0.08c0.4,0.01,0.75,0.01,1.07,0.02v3.25c-1.05-0.01-2.46-0.04-3.71-0.09c-1.03-0.04-1.89,0.77-1.93,1.79
				c-0.04,1.03,0.77,1.89,1.79,1.93c0.06,0,1.39,0.05,2.78,0.08c0.4,0.01,0.75,0.01,1.07,0.02v3.25c-1.37,0-3.42-0.04-5.23-0.09
				c-1.02-0.03-1.89,0.78-1.92,1.81s0.78,1.89,1.81,1.92c2.38,0.07,4.04,0.11,5.22,0.11c0.04,0,0.08,0,0.12,0v1.8H43.76V6.02h13.49
				v2.27c-1.37,0-3.42-0.04-5.23-0.09C51,8.17,50.13,8.97,50.1,10c-0.03,1.03,0.78,1.89,1.81,1.92c2.38,0.07,4.04,0.11,5.22,0.11
				c0.04,0,0.08,0,0.12,0v3.24c-1.05-0.01-2.46-0.04-3.71-0.09c-1.03-0.04-1.89,0.77-1.93,1.79c-0.04,1.03,0.77,1.89,1.79,1.93
				c0.06,0,1.39,0.05,2.78,0.08c0.4,0.01,0.75,0.01,1.07,0.02v3.25c-1.05-0.01-2.46-0.04-3.71-0.09c-1.03-0.04-1.89,0.77-1.93,1.79
				c-0.04,1.03,0.77,1.89,1.79,1.93c0.06,0,1.39,0.05,2.78,0.08c0.4,0.01,0.75,0.01,1.07,0.02L57.25,29.22L57.25,29.22z"/>
		</g>
	</g>
	<g>
		<g>
			<path class="st0" d="M19.27,27.45c0-0.03,0-0.05,0-0.08c0-0.05-0.01-0.09-0.02-0.14c0-0.02-0.01-0.04-0.01-0.06
				c-0.01-0.06-0.03-0.12-0.04-0.18c0,0,0-0.01,0-0.01l0,0c0-0.01,0-0.01,0-0.02L11.42,1.32C11.18,0.54,10.46,0,9.64,0
				C8.82,0,8.09,0.54,7.85,1.32L0.09,26.95c0,0.01,0,0.01-0.01,0.02l0,0c0,0,0,0.01,0,0.01c-0.02,0.06-0.03,0.12-0.04,0.19
				c0,0.02-0.01,0.04-0.01,0.06c-0.01,0.04-0.01,0.09-0.02,0.14c0,0.03,0,0.05,0,0.08c0,0.02,0,0.04,0,0.06v80.65v8.71
				c0,4.78,3.89,8.66,8.66,8.66h1.91c4.78,0,8.66-3.89,8.66-8.66v-8.33c0.03-0.12,0.04-0.25,0.04-0.38V27.52
				C19.28,27.49,19.27,27.47,19.27,27.45z M9.64,8.29l1.37,4.53H8.26L9.64,8.29z M7.13,16.55h5.01l2.76,9.1H4.38L7.13,16.55z
				 M3.73,29.38h4.04v69.45c0,0.06,0,0.12,0.01,0.18H3.73V29.38z M15.51,116.87c0,2.72-2.21,4.93-4.93,4.93H8.66
				c-2.72,0-4.93-2.21-4.93-4.93v-6.85h11.78L15.51,116.87L15.51,116.87z M15.55,106.3H3.73v-3.56h11.82V106.3z M15.55,99.02h-4.05
				c0.01-0.06,0.01-0.12,0.01-0.18V29.38h4.04L15.55,99.02L15.55,99.02z"/>
		</g>
	</g>
</g>
</svg>
