<?xml version="1.0" encoding="utf-8"?>
<!-- Generator: $$$/GeneralStr/196=Adobe Illustrator 27.6.0, SVG Export Plug-In . SVG Version: 6.00 Build 0)  -->
<svg version="1.1" id="Calque_1" xmlns="http://www.w3.org/2000/svg" xmlns:xlink="http://www.w3.org/1999/xlink" x="0px" y="0px"
	 viewBox="0 0 93.4 93.4" style="enable-background:new 0 0 93.4 93.4;" xml:space="preserve">
<style type="text/css">
	.st0{fill:#FFFFFF;}
</style>
<g>
	<path class="st0" d="M45.24,11.18L3.67,0.1C3.42,0.03,3.17,0,2.92,0C2.28,0,1.66,0.21,1.14,0.6C0.42,1.16,0,2.01,0,2.92v60.56
		l45.24,11.98V11.18z M35.65,58.78c-0.18,0.64-0.77,1.06-1.4,1.06c-0.13,0-0.27-0.02-0.4-0.06l-21.11-6.03
		c-0.77-0.22-1.22-1.03-1-1.8c0.22-0.78,1.03-1.22,1.8-1l21.11,6.03C35.43,57.19,35.87,58,35.65,58.78z M35.65,48.56
		c-0.18,0.64-0.77,1.06-1.4,1.06c-0.13,0-0.27-0.02-0.4-0.06l-21.11-6.03c-0.77-0.22-1.22-1.03-1-1.8c0.22-0.78,1.03-1.22,1.8-1
		l21.11,6.03C35.43,46.98,35.87,47.79,35.65,48.56z M35.65,38.34c-0.18,0.64-0.77,1.06-1.4,1.06c-0.13,0-0.27-0.02-0.4-0.06
		l-21.11-6.03c-0.77-0.22-1.22-1.03-1-1.8c0.22-0.78,1.03-1.22,1.8-1l21.11,6.03C35.43,36.76,35.87,37.57,35.65,38.34z M35.65,28.13
		c-0.18,0.64-0.77,1.06-1.4,1.06c-0.13,0-0.27-0.02-0.4-0.06L12.74,23.1c-0.77-0.22-1.22-1.03-1-1.8c0.22-0.78,1.03-1.22,1.8-1
		l21.11,6.03C35.43,26.55,35.87,27.35,35.65,28.13z"/>
	<path class="st0" d="M92.26,0.6C91.75,0.21,91.12,0,90.48,0c-0.25,0-0.5,0.03-0.75,0.1L48.16,11.18v64.27L93.4,63.48V2.92
		C93.4,2.01,92.98,1.16,92.26,0.6z M57.54,46.7l21.11-6.03c0.77-0.21,1.58,0.23,1.8,1c0.22,0.77-0.23,1.58-1,1.8l-21.11,6.03
		c-0.13,0.04-0.27,0.06-0.4,0.06c-0.63,0-1.22-0.42-1.4-1.06C56.31,47.73,56.76,46.92,57.54,46.7z M79.89,53.75l-21.11,6.03
		c-0.13,0.04-0.27,0.06-0.4,0.06c-0.63,0-1.22-0.42-1.4-1.06c-0.22-0.77,0.23-1.58,1-1.8l21.11-6.03c0.77-0.21,1.58,0.23,1.8,1
		C81.12,52.72,80.67,53.53,79.89,53.75z M79.89,33.31l-21.11,6.03c-0.13,0.04-0.27,0.06-0.4,0.06c-0.63,0-1.22-0.42-1.4-1.06
		c-0.22-0.77,0.23-1.58,1-1.8l21.11-6.03c0.77-0.21,1.58,0.23,1.8,1C81.12,32.28,80.67,33.09,79.89,33.31z M79.89,23.1l-21.11,6.03
		c-0.13,0.04-0.27,0.06-0.4,0.06c-0.63,0-1.22-0.42-1.4-1.06c-0.22-0.77,0.23-1.58,1-1.8l21.11-6.03c0.77-0.21,1.58,0.23,1.8,1
		C81.12,22.07,80.67,22.88,79.89,23.1z"/>
	<polygon class="st0" points="45.24,78.47 0,66.5 0,69.31 45.24,81.29 	"/>
	<polygon class="st0" points="48.16,81.29 93.4,69.31 93.4,66.5 48.16,78.47 	"/>
	<path class="st0" d="M51.08,84.7c0,2.42-1.96,4.38-4.38,4.38s-4.38-1.96-4.38-4.38c0-0.39,0.07-0.76,0.16-1.12L0,72.33v3.55
		c0,1.32,0.89,2.48,2.17,2.82l37.76,10.07c1.07,2.71,3.69,4.62,6.78,4.62c3.08,0,5.71-1.92,6.78-4.62l37.76-10.07
		c1.28-0.34,2.17-1.5,2.17-2.82v-3.55L50.92,83.58C51.01,83.94,51.08,84.31,51.08,84.7z"/>
</g>
</svg>
