<?xml version="1.0" encoding="utf-8"?>
<!-- Generator: $$$/GeneralStr/196=Adobe Illustrator 27.6.0, SVG Export Plug-In . SVG Version: 6.00 Build 0)  -->
<svg version="1.1" id="Calque_1" xmlns="http://www.w3.org/2000/svg" xmlns:xlink="http://www.w3.org/1999/xlink" x="0px" y="0px"
	 viewBox="0 0 440 478" style="enable-background:new 0 0 440 478;" xml:space="preserve">
<style type="text/css">
	.st0{fill:#FFFFFF;}
</style>
<path class="st0" d="M43,382c-9.4,9.4-9.4,24.6,0,33.9c9.4,9.4,24.6,9.4,33.9,0L43,382z M237,256c9.4-9.4,9.4-24.6,0-33.9
	s-24.6-9.4-33.9,0L237,256z M203,222c-9.4,9.4-9.4,24.6,0,33.9s24.6,9.4,33.9,0L203,222z M397,96c9.4-9.4,9.4-24.6,0-33.9
	c-9.4-9.4-24.6-9.4-33.9,0L397,96z M237,222c-9.4-9.4-24.6-9.4-33.9,0s-9.4,24.6,0,33.9L237,222z M363,416c9.4,9.4,24.6,9.4,33.9,0
	s9.4-24.6,0-33.9L363,416z M203,256c9.4,9.4,24.6,9.4,33.9,0s9.4-24.6,0-33.9L203,256z M77,62c-9.4-9.4-24.6-9.4-33.9,0
	c-9.4,9.4-9.4,24.6,0,33.9L77,62z M77,416l160-160L203,222L43,382L77,416z M237,256L397,96L363,62L203,222L237,256z M203,256
	l160,160L397,382L237,222L203,256z M237,222L77,62L43,96l160,160L237,222z"/>
</svg>
