<?xml version="1.0" encoding="utf-8"?>
<!-- Generator: $$$/GeneralStr/196=Adobe Illustrator 27.6.0, SVG Export Plug-In . SVG Version: 6.00 Build 0)  -->
<svg version="1.1" id="Calque_1" xmlns="http://www.w3.org/2000/svg" xmlns:xlink="http://www.w3.org/1999/xlink" x="0px" y="0px"
	 viewBox="0 0 113.5 116.2" style="enable-background:new 0 0 113.5 116.2;" xml:space="preserve">
<style type="text/css">
	.st0{display:none;}
	.st1{display:none;fill:#FFFFFF;}
	.st2{display:inline;fill:none;stroke:#FFFFFF;stroke-width:4;stroke-linejoin:round;stroke-miterlimit:10;}
	.st3{display:inline;fill:none;stroke:#FFFFFF;stroke-width:4;stroke-linecap:round;stroke-linejoin:round;stroke-miterlimit:10;}
	.st4{fill:#FFFFFF;}
</style>
<rect x="-618.3" y="-208.5" class="st0" width="279" height="249"/>
<path class="st1" d="M106.7,106.7l-2.5,2.5c-2.8,2.8-7.3,2.8-10.1,0L73.8,89c-2.3-2.3-2.6-5.9-1-8.6L61.8,69.3
	c-6,4.4-13.3,7.1-21.3,7.1c-19.8,0-35.8-16-35.8-35.8s16-35.8,35.8-35.8s35.8,16,35.8,35.8c0,9.2-3.5,17.6-9.2,23.9l10.8,10.8
	c2.7-1.6,6.3-1.3,8.6,1l20.2,20.2C109.5,99.4,109.5,103.9,106.7,106.7L106.7,106.7z M67.3,40.5c0-14.8-12-26.8-26.8-26.8
	s-26.8,12-26.8,26.8s12,26.8,26.8,26.8S67.3,55.3,67.3,40.5L67.3,40.5z"/>
<g class="st0">
	<path class="st2" d="M108.7,74.6c-4.4,0.8-8.1,0-9.7-2.8c-1.6-2.8-0.4-6.8,2.4-10.1c-3.6-3.6-7.7-6-12.5-7.3c-1.2,4-4,7.3-7.3,7.3
		s-6-2.8-7.3-7.3c-4.8,1.2-9.3,3.6-12.5,7.3c2.8,3.2,4,7.3,2.4,10.1c-1.6,2.8-5.6,3.6-9.7,2.8c-1.2,2.4-1.6,4.8-1.6,7.3
		c0,2.4,0.4,4.8,0.8,7.3c4.4-0.8,8.1,0,9.7,2.8c1.6,2.8,0.4,6.8-2.4,10.1c3.6,3.6,7.7,6,12.5,7.3c1.2-4,4-7.3,7.3-7.3s6,2.8,7.3,7.3
		c4.8-1.2,9.3-3.6,12.5-7.3c-2.8-3.2-4-7.3-2.4-10.1c1.6-2.8,5.6-3.6,9.7-2.8c0.8-2.4,0.8-4.8,0.8-7.3
		C108.7,79.5,109.1,77.1,108.7,74.6z"/>
	<circle class="st2" cx="81.3" cy="81.9" r="8.1"/>
	<line class="st3" x1="12.8" y1="41.6" x2="77.2" y2="41.6"/>
	<path class="st3" d="M34.9,25.9L30.1,9l0,0c9.3-4.8,20.5-4.8,29.8,0l0,0l-4.8,16.9"/>
	<path class="st3" d="M59.1,13c8.1,4.8,13.3,13.7,13.3,23.8v4.8"/>
	<path class="st3" d="M17.6,41.6v-4.8c0-10.1,5.2-18.9,13.3-23.8"/>
	<path class="st3" d="M24.9,41.6v8.1c0,8.5,3.6,16.1,10.1,20.1l0,0c0,8.5-5.2,15.7-12.9,17.7C13.2,89.9,6.7,98,4.7,107.7
		c0,1.2,0.8,2.4,2,2.4H45"/>
</g>
<g>
	<path class="st4" d="M22.9,7.2C16,7.2,9,12.4,9,22.8l13.9,27.7l13.9-27.7C36.8,12.4,29.8,7.2,22.9,7.2L22.9,7.2z M84.1,15.6
		c-1.5,0.1-2.9,0.3-4.2,0.6l0.8,3.8c1.2-0.3,2.5-0.4,3.5-0.5L84.1,15.6z M22.9,15.8c3.8,0,6.9,3.1,6.9,6.9c0,3.8-3.1,6.9-6.9,6.9
		c-3.8,0-6.9-3.1-6.9-6.9C16,18.9,19.1,15.8,22.9,15.8z M88.4,15.9l-0.7,3.8c1.1,0.2,2.1,0.5,3.1,1.1l1.9-3.4
		C91.4,16.6,89.9,16,88.4,15.9L88.4,15.9z M75.9,17.3c-1.3,0.5-2.6,1-3.8,1.4l1.5,3.6c1.2-0.5,2.4-0.9,3.5-1.3L75.9,17.3z
		 M96.2,20.2l-3,2.5c0.8,0.9,1.4,2,1.9,2.9l3.5-1.8C97.9,22.5,97.2,21.4,96.2,20.2z M68.5,20.4c-1.3,0.7-2.4,1.3-3.6,1.9l1.9,3.4
		c1.1-0.7,2.4-1.3,3.4-1.8L68.5,20.4z M61.5,24.3c-1.1,0.7-2.3,1.3-3.4,2.1l2.1,3.3c1.1-0.7,2.2-1.3,3.3-2L61.5,24.3z M100,28.2
		c-1.3,0.2-2.6,0.4-3.9,0.5c0.1,1.1,0,2.3-0.2,3.2l3.8,0.9C99.9,31.2,100.1,29.6,100,28.2L100,28.2z M54.9,28.6
		c-1.1,0.7-2.1,1.5-3.2,2.2l2.3,3.2c1-0.8,2.1-1.5,3.2-2.2L54.9,28.6z M48.4,33.1c-1.1,0.8-2.2,1.6-3.1,2.4l2.4,3.1
		c1.2-0.9,2-1.5,3.1-2.3L48.4,33.1z M94.6,34.9c-0.7,1-1.4,2-2.2,2.8l2.8,2.7c0.9-1.1,1.9-2.2,2.6-3.4L94.6,34.9z M42.2,37.9
		c-1.1,0.8-2.1,1.7-3.1,2.4l2.5,3c1-0.8,2.1-1.7,3-2.4L42.2,37.9z M89.8,40.1c-1,0.8-2,1.6-3,2.2l2.2,3.2c1.1-0.8,2.3-1.6,3.3-2.4
		L89.8,40.1z M36.1,42.9c-1,0.8-2,1.7-3,2.5l2.5,3c1-0.8,2-1.7,2.9-2.5L36.1,42.9z M83.6,44.4c-1.1,0.7-2.3,1.3-3.3,1.9l1.9,3.4
		c1.2-0.7,2.5-1.3,3.5-2L83.6,44.4z M30.2,48c-1,0.9-1.9,1.7-2.9,2.6l2.6,2.9c1-0.9,1.9-1.7,2.9-2.6L30.2,48z M76.9,48.1
		c-1.1,0.6-2.3,1.1-3.4,1.7l1.7,3.5c1.3-0.7,2.3-1.2,3.6-1.8L76.9,48.1z M69.9,51.4c-1.2,0.5-2.3,1.1-3.6,1.6l1.6,3.6
		c1.2-0.5,2.4-1.1,3.6-1.6L69.9,51.4z M24.4,53.3c-1.1,1-1.9,1.7-2.9,2.7l2.8,2.8c1-1,1.8-1.8,2.8-2.6L24.4,53.3z M62.8,54.6
		c-1.2,0.5-2.4,1-3.6,1.5l1.5,3.6c1.2-0.5,2.4-1,3.6-1.5L62.8,54.6z M55.7,57.6c-1.2,0.5-2.4,1-3.6,1.5l1.5,3.6
		c1.2-0.5,2.4-1,3.6-1.5L55.7,57.6z M95.7,59.2c-6.9,0-13.9,5.2-13.9,15.6l13.9,27.7l13.9-27.7C109.6,64.4,102.6,59.2,95.7,59.2z
		 M48.5,60.6c-1.2,0.6-2.5,1.1-3.6,1.5l1.5,3.6c1.3-0.5,2.5-1.1,3.6-1.5L48.5,60.6z M41.3,63.7c-1.2,0.5-2.5,1.1-3.6,1.6l1.6,3.6
		c1.3-0.6,2.4-1.1,3.5-1.6L41.3,63.7z M34.1,67c-1.2,0.6-2.5,1.2-3.6,1.7l1.8,3.5c1.2-0.6,2.4-1.2,3.4-1.7L34.1,67z M95.7,67.8
		c3.8,0,6.9,3.1,6.9,6.9c0,3.8-3.1,6.9-6.9,6.9c-3.8,0-6.9-3.1-6.9-6.9C88.8,70.9,91.9,67.8,95.7,67.8z M27.1,70.5
		c-1.1,0.6-2.3,1.3-3.5,2l2,3.4c1.1-0.7,2.2-1.3,3.4-1.9L27.1,70.5z M20.2,74.6c-1.2,0.7-2.4,1.6-3.4,2.3l2.4,3.1
		c1.1-0.8,2.2-1.6,3.2-2.1L20.2,74.6z M13.7,79.5c-1,1-2.1,2.1-2.9,3l3,2.5c0.8-1,1.6-1.8,2.5-2.6L13.7,79.5z M60.9,79.7l0.3,3.9
		c1.1-0.2,2.3-0.1,3.4,0.1l0.7-3.8C63.9,79.7,62.4,79.5,60.9,79.7L60.9,79.7z M52.8,81.9l1.5,3.6c1.1-0.5,2.3-0.9,3.5-1.3
		c-0.4-1.2-0.7-2.5-1-3.7C55.4,80.9,54,81.4,52.8,81.9L52.8,81.9z M69.6,81.7l-2.2,3.2c0.9,0.7,1.8,1.4,2.5,2.3l2.9-2.6
		C71.8,83.5,70.9,82.5,69.6,81.7z M49.2,83.7c-1.2,0.6-2.3,1.3-3.5,2l2,3.4c1.1-0.6,2.2-1.3,3.3-1.9L49.2,83.7z M8.5,86
		C7.8,87.5,7.3,89,7,90.3l3.8,0.7c0.2-1.2,0.6-2.1,1.1-3.2C10.7,87.3,9.6,86.7,8.5,86z M42.3,87.7c-1.1,0.7-2.2,1.4-3.3,2.2l2.2,3.3
		c1.1-0.7,2.1-1.5,3.2-2.2L42.3,87.7z M75.4,88l-3.3,2.1c0.7,1,1.4,2.1,2,3.2l3.4-2C76.7,90.2,76.2,89.1,75.4,88L75.4,88z
		 M35.8,92.1c-1.1,0.7-2.2,1.4-3.2,2.2l2.2,3.3c1-0.8,2.1-1.5,3.3-2.2L35.8,92.1z M10.9,94.2c-1.3,0.3-2.5,0.5-3.8,0.7
		c0.2,1.5,0.8,3,1.4,4.2l3.5-1.7C11.6,96.3,11.1,95.1,10.9,94.2z M79.4,94.8l-3.4,2c0.7,1.2,1.5,2.4,2.1,3.4l3.3-2.1
		C80.7,96.9,80,95.8,79.4,94.8L79.4,94.8z M29.4,96.4c-1.1,0.7-2.1,1.3-3.3,2l1.9,3.4c1.1-0.7,2.3-1.3,3.4-2.1L29.4,96.4z
		 M13.9,99.9l-2.7,2.9c1.2,1.1,2.7,1.9,4.3,2.3l0.9-3.8C15.5,101.1,14.6,100.6,13.9,99.9z M22.8,100c-1.1,0.5-2.2,0.9-3.4,1.1
		l0.9,3.8c1.4-0.3,2.7-0.8,4-1.3L22.8,100z M83.5,101l-3,2.4c0.9,1.1,2.1,2.3,3.1,3l2.4-3.1C85.1,102.7,84.2,101.8,83.5,101
		L83.5,101z M88.8,104.8l-1,3.8c1.7,0.3,3,0.5,4.6,0.3l-0.5-3.9C90.8,105.2,89.8,105.1,88.8,104.8z"/>
	<path class="st4" d="M35.6,68.2l3.3-7.8c0.5-1.1,0-2.3-1.2-2.8l0,0c-0.5-0.3-1.1-0.4-1.6-0.2c-0.5,0.2-0.9,0.6-1.2,1.2l-3.3,8
		l-7.8-3.3c-1.1-0.5-2.4,0.1-2.8,1.2c-0.3,0.5-0.4,1.1-0.1,1.7s0.6,0.9,1.2,1.2l7.8,3.3l-3.3,7.8c-0.1,0.5-0.2,1.2,0,1.8
		c0.2,0.5,0.6,0.9,1.2,1.2c0.6,0.2,1.2,0.2,1.7,0c0.5-0.2,0.9-0.6,1.2-1.2l3.3-7.8l7.8,3.3c1.1,0.5,2.4-0.1,2.8-1.2
		c0.5-1.1-0.1-2.4-1.2-2.8L35.6,68.2z"/>
</g>
</svg>
