<?xml version="1.0" encoding="utf-8"?>
<!-- Generator: $$$/GeneralStr/196=Adobe Illustrator 27.6.0, SVG Export Plug-In . SVG Version: 6.00 Build 0)  -->
<svg version="1.1" id="Calque_1" xmlns="http://www.w3.org/2000/svg" xmlns:xlink="http://www.w3.org/1999/xlink" x="0px" y="0px"
	 viewBox="0 0 104.11 106.5" style="enable-background:new 0 0 104.11 106.5;" xml:space="preserve">
<style type="text/css">
	.st0{fill:#FFFFFF;}
</style>
<path class="st0" d="M102.02,101.87l-2.53,2.53c-2.8,2.8-7.33,2.8-10.12,0L69.12,84.16c-2.34-2.35-2.6-5.86-1-8.6L57.05,64.5
	c-5.95,4.42-13.3,7.06-21.27,7.06C16.02,71.56,0,55.54,0,35.78S16.02,0,35.78,0c19.76,0,35.78,16.02,35.78,35.78
	c0,9.2-3.5,17.56-9.2,23.9L73.18,70.5c2.74-1.59,6.26-1.34,8.6,1.01l20.24,20.24C104.81,94.55,104.81,99.08,102.02,101.87
	L102.02,101.87z M62.54,35.63c0-14.82-12.02-26.83-26.84-26.83S8.87,20.81,8.87,35.63s12.01,26.83,26.83,26.83
	S62.54,50.45,62.54,35.63L62.54,35.63z"/>
</svg>
