<?xml version="1.0" encoding="utf-8"?>
<!-- Generator: $$$/GeneralStr/196=Adobe Illustrator 27.6.0, SVG Export Plug-In . SVG Version: 6.00 Build 0)  -->
<svg version="1.1" id="Calque_1" xmlns="http://www.w3.org/2000/svg" xmlns:xlink="http://www.w3.org/1999/xlink" x="0px" y="0px"
	 viewBox="0 0 100.6 95.81" style="enable-background:new 0 0 100.6 95.81;" xml:space="preserve">
<style type="text/css">
	.st0{fill-rule:evenodd;clip-rule:evenodd;fill:#FFFFFF;}
</style>
<g id="Page-1">
	<g id="Dribbble-Light-Preview" transform="translate(-299.000000, -520.000000)">
		<g id="icons" transform="translate(56.000000, 160.000000)">
			<path id="question-_x5B__x23_1444_x5D_" class="st0" d="M292.18,429.52c0,2.64-2.25,4.79-5.03,4.79c-2.78,0-5.03-2.15-5.03-4.79
				s2.25-4.79,5.03-4.79C289.93,424.73,292.18,426.87,292.18,429.52L292.18,429.52z M272.06,383.95c0-2.64,2.25-4.79,5.03-4.79
				h28.72c4.2,0,7.61,3.24,7.61,7.24v11.92c0,5.27-4.53,9.58-10.06,9.58h-7.5c-1.41,0-2.56,1.09-2.56,2.44v4.8
				c0,2.64-2.25,4.79-5.03,4.79c-2.78,0-5.03-2.15-5.03-4.79v-8.31c0-4.7,4-8.52,8.94-8.52h5.03c2.78,0,5.03-2.15,5.03-4.79
				c0-2.64-2.25-4.79-5.03-4.79h-20.12C274.32,388.74,272.06,386.6,272.06,383.95L272.06,383.95z M253.06,446.22h80.48v-76.64
				h-80.48V446.22z M243,455.81h100.6V360H243V455.81z"/>
		</g>
	</g>
</g>
</svg>
