<?xml version="1.0" encoding="utf-8"?>
<!-- Generator: $$$/GeneralStr/196=Adobe Illustrator 27.6.0, SVG Export Plug-In . SVG Version: 6.00 Build 0)  -->
<svg version="1.1" id="Calque_1" xmlns="http://www.w3.org/2000/svg" xmlns:xlink="http://www.w3.org/1999/xlink" x="0px" y="0px"
	 viewBox="0 0 94.28 100.76" style="enable-background:new 0 0 94.28 100.76;" xml:space="preserve">
<style type="text/css">
	.st0{fill:#FFFFFF;}
</style>
<g>
	<g>
		<g>
			<path class="st0" d="M83.11,100.76l-70.82,0C5.51,100.76,0,95.25,0,88.47l0-6.59c0-0.8,0.65-1.46,1.46-1.46
				c0.8,0,1.46,0.65,1.46,1.46l0,6.59c0,5.17,4.21,9.38,9.38,9.38l70.82,0c0.8,0,1.46,0.65,1.46,1.46
				C84.57,100.11,83.92,100.76,83.11,100.76z"/>
		</g>
		<g>
			<path class="st0" d="M83.11,100.76c-6.16,0-11.17-5.01-11.17-11.16l0-6.26l-70.49,0c-0.8,0-1.46-0.65-1.46-1.46
				c0-0.8,0.65-1.46,1.46-1.46l18.97,0l0-78.97c0-0.8,0.65-1.46,1.46-1.46l70.94,0c0.8,0,1.46,0.65,1.46,1.46l0,88.14
				C94.28,95.75,89.27,100.76,83.11,100.76z M23.33,80.42l50.07,0c0.8,0,1.46,0.65,1.46,1.46l0,7.71c0,4.55,3.7,8.25,8.25,8.25
				c4.55,0,8.25-3.7,8.25-8.25l0-86.68l-68.03,0L23.33,80.42z"/>
		</g>
		<g>
			<g>
				<path class="st0" d="M73.4,21.26l-38.45,0c-0.8,0-1.46-0.65-1.46-1.46c0-0.8,0.65-1.46,1.46-1.46l38.45,0
					c0.8,0,1.46,0.65,1.46,1.46C74.86,20.61,74.21,21.26,73.4,21.26z"/>
			</g>
			<g>
				<path class="st0" d="M73.4,59.53l-38.45,0c-0.8,0-1.46-0.65-1.46-1.46c0-0.8,0.65-1.46,1.46-1.46l38.45,0
					c0.8,0,1.46,0.65,1.46,1.46C74.86,58.88,74.21,59.53,73.4,59.53z"/>
			</g>
			<g>
				<path class="st0" d="M73.4,46.78l-38.45,0c-0.8,0-1.46-0.65-1.46-1.46c0-0.8,0.65-1.46,1.46-1.46l38.45,0
					c0.8,0,1.46,0.65,1.46,1.46C74.86,46.12,74.21,46.78,73.4,46.78z"/>
			</g>
			<g>
				<path class="st0" d="M61.08,34.02l-26.14,0c-0.8,0-1.46-0.65-1.46-1.46c0-0.8,0.65-1.46,1.46-1.46l26.14,0
					c0.8,0,1.46,0.65,1.46,1.46C62.54,33.37,61.89,34.02,61.08,34.02z"/>
			</g>
		</g>
	</g>
</g>
</svg>
