<?xml version="1.0" encoding="utf-8"?>
<!-- Generator: $$$/GeneralStr/196=Adobe Illustrator 27.6.0, SVG Export Plug-In . SVG Version: 6.00 Build 0)  -->
<svg version="1.1" id="Calque_1" xmlns="http://www.w3.org/2000/svg" xmlns:xlink="http://www.w3.org/1999/xlink" x="0px" y="0px"
	 viewBox="0 0 44 42" style="enable-background:new 0 0 44 42;" xml:space="preserve">
<style type="text/css">
	.st0{fill:#FFFFFF;}
</style>
<g>
	<path class="st0" d="M16.7,10.7v1.4h-1.4v14.7h14.7V14.9h-5.6v-2.8h-1.4v-1.4H16.7z M17.4,11.4h4.9v1.4h1.4v13.3h-3.1v-2.4h-1.4
		v2.4H16V12.8h1.4V11.4z M17.4,13.5v0.7H18v-0.7H17.4z M18.7,13.5v0.7h0.7v-0.7H18.7z M20.1,13.5v0.7h0.7v-0.7H20.1z M21.5,13.5v0.7
		h0.7v-0.7H21.5z M17.4,15.3v1.4H18v-1.4H17.4z M18.7,15.3v1.4h0.7v-1.4H18.7z M20.1,15.3v1.4h0.7v-1.4H20.1z M21.5,15.3v1.4h0.7
		v-1.4H21.5z M24.3,15.6h4.9v10.5h-4.9V15.6z M25,16.3V17h0.7v-0.7H25z M26.4,16.3V17h0.7v-0.7H26.4z M27.8,16.3V17h0.7v-0.7H27.8z
		 M17.4,17.4v1.4H18v-1.4H17.4z M18.7,17.4v1.4h0.7v-1.4H18.7z M20.1,17.4v1.4h0.7v-1.4H20.1z M21.5,17.4v1.4h0.7v-1.4H21.5z
		 M25,17.7v0.7h0.7v-0.7H25z M26.4,17.7v0.7h0.7v-0.7H26.4z M27.8,17.7v0.7h0.7v-0.7H27.8z M25,19.1v0.7h0.7v-0.7H25z M26.4,19.1
		v0.7h0.7v-0.7H26.4z M27.8,19.1v0.7h0.7v-0.7H27.8z M17.4,19.5v1.4H18v-1.4H17.4z M18.7,19.5v1.4h0.7v-1.4H18.7z M20.1,19.5v1.4
		h0.7v-1.4H20.1z M21.5,19.5v1.4h0.7v-1.4H21.5z M25,20.5v0.7h0.7v-0.7H25z M26.4,20.5v0.7h0.7v-0.7H26.4z M27.8,20.5v0.7h0.7v-0.7
		H27.8z M17.4,21.6V23H18v-1.4H17.4z M18.7,21.6V23h0.7v-1.4H18.7z M20.1,21.6V23h0.7v-1.4H20.1z M21.5,21.6V23h0.7v-1.4H21.5z
		 M25,21.9v0.7h0.7v-0.7H25z M26.4,21.9v0.7h0.7v-0.7H26.4z M27.8,21.9v0.7h0.7v-0.7H27.8z M25,23.3V24h0.7v-0.7H25z M26.4,23.3V24
		h0.7v-0.7H26.4z M27.8,23.3V24h0.7v-0.7H27.8z M17.4,23.7v1.7H18v-1.7H17.4z M21.5,23.7v1.7h0.7v-1.7H21.5z M25,24.7v0.7h0.7v-0.7
		H25z M26.4,24.7v0.7h0.7v-0.7H26.4z M27.8,24.7v0.7h0.7v-0.7H27.8z"/>
	<path class="st0" d="M24.3,26.5c0,0.1,1.9,4.2,1.9,4.3c0.1,0.4,0.1,0.7,0.1,0.8c0,0.1,0,0.4-0.1,0.7c-0.1,0.5-0.4,0.9-0.8,1.3
		c-0.6,0.6-1.6,1-2.9,1l0,0c-8.1,0-14.6-6.5-14.6-14.6c0-4,1.6-7.7,4.3-10.3c2.6-2.6,6.3-4.3,10.3-4.3c4,0,7.7,1.6,10.3,4.3
		c2.6,2.6,4.3,6.3,4.3,10.3c0,2.5-0.6,4.8-1.7,6.9C34.8,28,34,29.1,33.1,30c-0.4,0.4-0.3,1,0,1.3c0.4,0.4,1,0.3,1.3,0
		c1-1.1,1.9-2.3,2.6-3.6c1.2-2.3,1.9-5,1.9-7.8c0-9.1-7.4-16.5-16.5-16.5C13.4,3.5,6,10.9,6,20c0,9.1,7.4,16.5,16.5,16.5h0l0,0
		c1.7,0,3.2-0.5,4.2-1.5c1-0.9,1.5-2.1,1.5-3.4c0-0.7-0.2-1.4-0.2-1.4c0-0.1-1.6-4-1.6-4.1"/>
</g>
</svg>
