<?xml version="1.0" encoding="utf-8"?>
<!-- Generator: $$$/GeneralStr/196=Adobe Illustrator 27.6.0, SVG Export Plug-In . SVG Version: 6.00 Build 0)  -->
<svg version="1.1" id="Calque_1" xmlns="http://www.w3.org/2000/svg" xmlns:xlink="http://www.w3.org/1999/xlink" x="0px" y="0px"
	 viewBox="0 0 53 65" style="enable-background:new 0 0 53 65;" xml:space="preserve">
<style type="text/css">
	.st0{fill:none;stroke:#FFFFFF;stroke-width:2;stroke-miterlimit:10;}
</style>
<g>
	<g id="Group_24_00000018235124990965755900000009228139881150482063_" transform="translate(-480.1 -460.4)">
		<path id="Path_18_00000182510228753729266120000001622688884961847966_" class="st0" d="M489.7,484.3c0,8.7,10,27.8,15.8,27.8
			c5.7,0,15.8-19.1,15.8-27.8c0-8.7-7.1-15.8-15.8-15.8C496.8,468.5,489.7,475.5,489.7,484.3L489.7,484.3z"/>
		<path id="Path_19_00000071559449604002443960000011072166256714354594_" class="st0" d="M512.5,482.7c0.5,3.8-2.2,7.3-6,7.8
			c-0.6,0.1-1.2,0.1-1.8,0c-3.1-0.4-5.6-2.9-6-6c-0.5-3.8,2.2-7.3,6-7.8c0.6-0.1,1.2-0.1,1.8,0C509.6,477.1,512,479.6,512.5,482.7z"
			/>
		<path id="Path_20_00000134228261916606583610000002268523181783126186_" class="st0" d="M521.3,511.5c0,3.6-7.1,6.4-15.8,6.4
			c-8.7,0-15.8-2.9-15.8-6.4c0-2.2,2.9-4.3,7.2-5.4"/>
	</g>
</g>
</svg>
