<?xml version="1.0" encoding="utf-8"?>
<!-- Generator: $$$/GeneralStr/196=Adobe Illustrator 27.6.0, SVG Export Plug-In . SVG Version: 6.00 Build 0)  -->
<svg version="1.1" id="Calque_1" xmlns="http://www.w3.org/2000/svg" xmlns:xlink="http://www.w3.org/1999/xlink" x="0px" y="0px"
	 viewBox="0 0 44 42" style="enable-background:new 0 0 44 42;" xml:space="preserve">
<style type="text/css">
	.st0{fill:#FFFFFF;}
</style>
<g>
	<path class="st0" d="M21.5,3.6C12.4,3.6,5,10.9,5,20c0,9.1,7.4,16.4,16.4,16.4h0l0,0c1.7,0,3.2-0.5,4.2-1.5c1-0.9,1.5-2.1,1.5-3.4
		c0-0.6-0.1-1.2-0.4-1.7c0.4-0.2,0.7-0.4,0.7-0.5c0.3-0.2,1-1.2,0.5-2c-0.5-0.8-2.4-2.7-3-3.1c-0.5-0.3-1.4,0-1.8,0.6
		c-0.4,0.6-0.8,0.4-0.8,0.4s-1.2-1-2.8-4.3c-1.6-3.3-1.7-4.8-1.7-4.8s0.1-0.4,0.8-0.3c0.7,0,1.5-0.5,1.6-1.1
		c0.1-0.6-0.3-3.3-0.6-4.2c-0.3-0.9-1.6-0.9-1.9-0.8c-0.3,0.1-3.5,0.9-3.8,4.3c-0.3,3.4,0.6,6.4,1.9,8.9c1.2,2.5,3.2,5.1,6,6.9
		c1.1,0.7,2.3,0.8,3.2,0.7c0.2,0.4,0.2,0.7,0.2,1.1c0,0.7-0.3,1.4-0.9,2c-0.6,0.6-1.5,1-2.9,1l0,0c-8,0-14.6-6.5-14.6-14.6
		c0-4,1.6-7.7,4.3-10.3c2.6-2.6,6.3-4.3,10.3-4.3c4,0,7.7,1.6,10.3,4.3C34.4,12.3,36,16,36,20c0,2.5-0.6,4.8-1.7,6.9
		C33.7,28,33,29.1,32.1,30c-0.4,0.4-0.3,1,0,1.3c0.4,0.4,1,0.3,1.3,0c1-1.1,1.9-2.2,2.6-3.5c1.2-2.3,1.9-5,1.9-7.8
		C37.9,10.9,30.6,3.6,21.5,3.6z"/>
</g>
</svg>
