<?xml version="1.0" encoding="utf-8"?>
<!-- Generator: $$$/GeneralStr/196=Adobe Illustrator 27.6.0, SVG Export Plug-In . SVG Version: 6.00 Build 0)  -->
<svg version="1.1" id="Calque_1" xmlns="http://www.w3.org/2000/svg" xmlns:xlink="http://www.w3.org/1999/xlink" x="0px" y="0px"
	 viewBox="0 0 47 47" style="enable-background:new 0 0 47 47;" xml:space="preserve">
<style type="text/css">
	.st0{fill:#FFFFFF;}
</style>
<g>
	<g>
		<g>
			<path class="st0" d="M41.7,30.4c0,0-25.4-25.5-25.6-25.7c-1.1-1.1-2.6-1.6-4.2-1.5C9.1,3.4,6.7,5.7,6.7,8.4c0,2.8,2.5,4.2,4.1,4
				c1.9-0.2,3.6-1.8,3.7-3.7c0-0.6-0.4-1.2-1.1-1.2c-0.6,0-1.2,0.4-1.2,1.1c-0.1,0.8-0.8,1.6-1.6,1.6c-1,0-1.7-1-1.6-1.7
				c0-1.5,1.5-2.8,3.1-3c2.2-0.3,3.4,1.8,3.3,3.3c-0.2,2.8-2.6,5.2-5.4,5.4c-1.7,0.1-3.2-0.4-4.3-1.5C4.5,11.5,4,10,4.1,8.3
				c0-0.6-0.4-1.2-1.1-1.2c-0.6,0-1.2,0.4-1.2,1.1c-0.2,2.3,0.6,4.5,2.1,6c0.1,0.1,14.7,14.7,14.7,14.7c-0.9,0.1-1.8,0.3-2.5,0.8
				c-0.5,0.4-0.6,1.2-0.2,1.6c0.8,0.8,1.4,0.3,1.6,0.2c0.4-0.3,1.4-0.4,2.3-0.3c0,0.5-0.1,1-0.5,1.4c-0.4,0.5-0.4,1.2,0.1,1.6
				c0.2,0.2,0.9,0.6,1.6-0.1c0.5-0.5,0.8-1.2,1-1.8l8.9,8.8c2.4,2.4,7,3.7,10.7,0C45.1,37.6,44.3,33.1,41.7,30.4z M20.5,27.4
				l-11.1-11c4.6,0.5,7.8-3.8,8.1-7l10.1,10.1L20.5,27.4z M29.2,21.2l1.5,1.5L23,28L29.2,21.2z M40,39.5c-2.1,2.1-5.4,2-7.5,0
				l-9.1-9l8.8-6.2l7.8,7.8C42.3,34.3,41.9,37.6,40,39.5z"/>
		</g>
	</g>
</g>
</svg>
