<?xml version="1.0" encoding="utf-8"?>
<!-- Generator: $$$/GeneralStr/196=Adobe Illustrator 27.6.0, SVG Export Plug-In . SVG Version: 6.00 Build 0)  -->
<svg version="1.1" id="Calque_1" xmlns="http://www.w3.org/2000/svg" xmlns:xlink="http://www.w3.org/1999/xlink" x="0px" y="0px"
	 viewBox="0 0 104.14 110.6" style="enable-background:new 0 0 104.14 110.6;" xml:space="preserve">
<style type="text/css">
	.st0{fill:#FFFFFF;}
</style>
<g>
	<g>
		<g>
			<path class="st0" d="M95.73,86.61l-87.33,0C3.77,86.61,0,82.84,0,78.2l0-69.8C0,3.77,3.77,0,8.41,0l87.33,0
				c4.64,0,8.41,3.77,8.41,8.41l0,69.8C104.14,82.84,100.37,86.61,95.73,86.61z M8.41,3.21c-2.87,0-5.2,2.33-5.2,5.2l0,69.8
				c0,2.86,2.33,5.2,5.2,5.2l87.33,0c2.87,0,5.2-2.33,5.2-5.2l0-69.8c0-2.86-2.33-5.2-5.2-5.2L8.41,3.21z"/>
		</g>
		<g>
			<rect x="1.6" y="61.25" class="st0" width="100.93" height="3.21"/>
		</g>
		<g>
			<path class="st0" d="M52.07,80.02c-3.07,0-5.58-2.5-5.58-5.58c0-3.07,2.5-5.57,5.58-5.57c3.07,0,5.57,2.5,5.57,5.57
				C57.65,77.52,55.15,80.02,52.07,80.02z M52.07,72.08c-1.31,0-2.37,1.06-2.37,2.36c0,1.3,1.06,2.37,2.37,2.37
				c1.3,0,2.37-1.06,2.37-2.37C54.44,73.14,53.38,72.08,52.07,72.08z"/>
		</g>
		<g>
			<path class="st0" d="M65.77,99.79l-27.4,0l0-16.39l27.4,0V99.79z M41.58,96.58l20.98,0l0-9.98l-20.98,0L41.58,96.58z"/>
		</g>
		<g>
			<path class="st0" d="M75.14,110.6l-46.13,0c-3.14,0-5.69-2.55-5.69-5.69l0-2.64c0-3.14,2.55-5.69,5.69-5.69l46.13,0
				c3.14,0,5.69,2.55,5.69,5.69l0,2.64C80.83,108.05,78.28,110.6,75.14,110.6z M29,99.79c-1.37,0-2.48,1.11-2.48,2.48v2.64
				c0,1.37,1.11,2.48,2.48,2.48l46.13,0c1.37,0,2.48-1.11,2.48-2.48l0-2.64c0-1.37-1.11-2.48-2.48-2.48L29,99.79z"/>
		</g>
	</g>
</g>
</svg>
