<?xml version="1.0" encoding="utf-8"?>
<!-- Generator: $$$/GeneralStr/196=Adobe Illustrator 27.6.0, SVG Export Plug-In . SVG Version: 6.00 Build 0)  -->
<svg version="1.1" id="Calque_1" xmlns="http://www.w3.org/2000/svg" xmlns:xlink="http://www.w3.org/1999/xlink" x="0px" y="0px"
	 viewBox="0 0 115.74 116.41" style="enable-background:new 0 0 115.74 116.41;" xml:space="preserve">
<style type="text/css">
	.st0{fill:none;stroke:#FFFFFF;stroke-width:4;stroke-linejoin:round;stroke-miterlimit:10;}
	.st1{fill:none;stroke:#FFFFFF;stroke-width:4;stroke-linecap:round;stroke-linejoin:round;stroke-miterlimit:10;}
</style>
<g>
	<path class="st0" d="M113.55,76.36c-4.76,0.86-8.65,0-10.38-3.03c-1.73-3.03-0.43-7.35,2.59-10.81c-3.89-3.89-8.21-6.49-13.4-7.78
		c-1.3,4.32-4.32,7.78-7.78,7.78s-6.49-3.03-7.78-7.78c-5.19,1.3-9.94,3.89-13.4,7.78c3.03,3.46,4.32,7.78,2.59,10.81
		c-1.73,3.03-6.05,3.89-10.38,3.03c-1.3,2.59-1.73,5.19-1.73,7.78s0.43,5.19,0.86,7.78c4.76-0.86,8.65,0,10.38,3.03
		c1.73,3.03,0.43,7.35-2.59,10.81c3.89,3.89,8.21,6.49,13.4,7.78c1.3-4.32,4.32-7.78,7.78-7.78s6.49,3.03,7.78,7.78
		c5.19-1.3,9.94-3.89,13.4-7.78c-3.03-3.46-4.32-7.78-2.59-10.81c1.73-3.03,6.05-3.89,10.38-3.03c0.86-2.59,0.86-5.19,0.86-7.78
		S113.98,78.96,113.55,76.36z"/>
	<circle class="st0" cx="84.15" cy="84.15" r="8.65"/>
	<line class="st1" x1="10.65" y1="40.91" x2="79.82" y2="40.91"/>
	<path class="st1" d="M34.43,24.05L29.24,5.89l0,0c9.94-5.19,22.05-5.19,31.99,0l0,0l-5.19,18.16"/>
	<path class="st1" d="M60.37,10.21c8.65,5.19,14.27,14.7,14.27,25.51v5.19"/>
	<path class="st1" d="M15.84,40.91v-5.19c0-10.81,5.62-20.32,14.27-25.51"/>
	<path class="st1" d="M23.62,40.91v8.65c0,9.08,3.89,17.29,10.81,21.62l0,0c0,9.08-5.62,16.86-13.84,19.02
		C11.08,92.79,4.16,101.44,2,111.82c0,1.3,0.86,2.59,2.16,2.59h41.07"/>
</g>
</svg>
