<?xml version="1.0" encoding="utf-8"?>
<!-- Generator: $$$/GeneralStr/196=Adobe Illustrator 27.6.0, SVG Export Plug-In . SVG Version: 6.00 Build 0)  -->
<svg version="1.1" id="Calque_1" xmlns="http://www.w3.org/2000/svg" xmlns:xlink="http://www.w3.org/1999/xlink" x="0px" y="0px"
	 viewBox="0 0 128.05 108.48" style="enable-background:new 0 0 128.05 108.48;" xml:space="preserve">
<style type="text/css">
	.st0{fill:#FFFFFF;}
</style>
<g>
	<path class="st0" d="M76.83,95.67c-1.08,0-1.95-0.88-1.95-1.96c0-0.85,0.55-1.6,1.36-1.86l7.23-2.27c1.02-0.36,2.13,0.18,2.49,1.19
		c0.36,1.02-0.18,2.13-1.19,2.49c-0.04,0.01-0.08,0.03-0.13,0.04l-7.23,2.27C77.23,95.64,77.03,95.67,76.83,95.67z"/>
	<path class="st0" d="M51.28,103.59c-1.05,0.03-1.92-0.8-1.95-1.85c0-0.02,0-0.04,0-0.05V38.12c0-0.85,0.55-1.61,1.37-1.86
		l49.36-15.39c0.59-0.18,1.24-0.08,1.75,0.29c0.5,0.37,0.79,0.95,0.79,1.58v37.23c0,1.08-0.88,1.95-1.95,1.95
		c-1.08,0-1.95-0.88-1.95-1.95V25.39l-45.39,14.2v61.99c0.01,1.1-0.88,2-1.98,2.01C51.3,103.59,51.29,103.59,51.28,103.59z"/>
	<path class="st0" d="M51.28,103.65c-1.08,0-1.95-0.88-1.95-1.96c0-0.85,0.55-1.6,1.36-1.86l25.5-7.97
		c1.01-0.38,2.14,0.14,2.52,1.15c0.38,1.01-0.14,2.14-1.15,2.52c-0.07,0.03-0.14,0.05-0.21,0.07l-25.43,7.97
		C51.72,103.62,51.5,103.65,51.28,103.65z"/>
	<path class="st0" d="M59.1,91.92c-1.08,0-1.95-0.88-1.95-1.96c0-0.85,0.55-1.6,1.36-1.86l18.02-5.68c1.02-0.36,2.13,0.18,2.49,1.19
		c0.36,1.02-0.18,2.13-1.19,2.49c-0.04,0.01-0.08,0.03-0.13,0.04l-17.97,5.68C59.53,91.9,59.32,91.93,59.1,91.92z"/>
	<path class="st0" d="M59.1,82.8c-1.08,0-1.95-0.88-1.95-1.96c0-0.85,0.55-1.6,1.36-1.86l13.72-4.29c1.03-0.33,2.13,0.23,2.46,1.26
		c0.33,1.03-0.23,2.13-1.26,2.46l-13.69,4.29C59.53,82.78,59.32,82.81,59.1,82.8z"/>
	<path class="st0" d="M51.28,103.54c-0.19,0-0.39-0.03-0.57-0.09L1.38,88.02C0.56,87.78,0,87.02,0,86.16V22.63
		c0-1.08,0.88-1.95,1.95-1.95c0.2,0,0.41,0.03,0.6,0.09l13.38,4.17c0.81,0.26,1.36,1.02,1.37,1.88v26.87
		c0.31,0.51,0.38,1.13,0.2,1.69c-0.37,1.01-1.48,1.55-2.5,1.2l-0.3-0.1c-0.78-0.28-1.3-1.02-1.3-1.85V28.24l-9.49-2.97v59.45
		l45.47,14.2V39.49l-10.65-3.32v25.41c0,1.08-0.88,1.95-1.95,1.95c-1.08,0-1.95-0.88-1.95-1.95l0,0V33.51
		c-0.02-1.08,0.84-1.97,1.92-1.99c0.21,0,0.41,0.03,0.61,0.09l14.57,4.56c0.79,0.27,1.32,1.02,1.3,1.86v63.56
		c0.01,0.62-0.29,1.21-0.79,1.58C52.1,103.41,51.7,103.54,51.28,103.54z"/>
	<path class="st0" d="M36.78,63.57c-1.08,0-1.95-0.88-1.95-1.95V33.77c-0.05-0.3-0.03-0.6,0.07-0.89c0.3-1.03,1.38-1.62,2.41-1.31
		c0.01,0,0.03,0.01,0.04,0.01c0.82,0.26,1.38,1.02,1.39,1.88v28.12c0.02,1.08-0.84,1.97-1.91,1.99
		C36.81,63.57,36.8,63.57,36.78,63.57z"/>
	<path class="st0" d="M15.65,56.67c-0.22,0-0.44-0.04-0.65-0.1l-0.3-0.1c-0.78-0.28-1.3-1.02-1.3-1.85v-27.8
		c0-1.08,0.88-1.95,1.95-1.95s1.95,0.88,1.95,1.95v26.87c0.31,0.51,0.38,1.13,0.2,1.69C17.22,56.15,16.48,56.67,15.65,56.67z"/>
	<path class="st0" d="M51.28,40.06c-1.06-0.01-1.92-0.88-1.92-1.94c0,0,0,0,0,0v0c0-1.08,0.88-1.95,1.95-1.95s1.95,0.88,1.95,1.95
		C53.26,39.2,52.37,40.07,51.28,40.06z"/>
	<path class="st0" d="M1.98,24.57c-1.08-0.01-1.95-0.89-1.94-1.96c0-0.78,0.47-1.48,1.19-1.79L50.74,0.21
		c1-0.42,2.14,0.05,2.56,1.05c0.42,1-0.05,2.14-1.05,2.56L2.72,24.43C2.49,24.52,2.24,24.57,1.98,24.57z"/>
	<path class="st0" d="M16.91,28.8c-1.08-0.02-1.93-0.92-1.91-2c0.02-0.73,0.44-1.4,1.1-1.72l22.37-9.3
		c1.01-0.39,2.14,0.11,2.53,1.11c0.38,0.97-0.08,2.07-1.03,2.5l-22.32,9.25C17.42,28.75,17.17,28.8,16.91,28.8z"/>
	<path class="st0" d="M36.73,35.44c-0.79,0-1.51-0.49-1.8-1.22c-0.44-0.99,0-2.14,0.99-2.58c0.02-0.01,0.04-0.02,0.06-0.02l19.7-8.2
		c1-0.42,2.14,0.05,2.56,1.05c0.42,1-0.05,2.14-1.05,2.56l-19.7,8.27C37.25,35.39,36.99,35.44,36.73,35.44z"/>
	<path class="st0" d="M66.59,10.32c-0.26,0-0.52-0.05-0.76-0.16L50.79,3.8c-1.02-0.35-1.56-1.47-1.21-2.49
		c0.35-1.02,1.47-1.56,2.49-1.21c0.08,0.03,0.16,0.06,0.23,0.1l15.06,6.36c1,0.41,1.48,1.55,1.07,2.55
		c-0.01,0.02-0.02,0.04-0.02,0.06C68.08,9.87,67.37,10.32,66.59,10.32z"/>
	<path class="st0" d="M100.65,24.69c-0.26,0-0.52-0.05-0.76-0.16L65.84,10.2c-1.01-0.38-1.52-1.51-1.14-2.52
		c0.38-1.01,1.51-1.52,2.52-1.14c0.05,0.02,0.09,0.04,0.14,0.06l34.06,14.33c0.99,0.42,1.46,1.57,1.03,2.56
		C102.15,24.22,101.44,24.69,100.65,24.69L100.65,24.69z"/>
	<path class="st0" d="M36.78,63.57c-0.67,0-1.29-0.35-1.65-0.91L24.7,46.3c-0.6-0.89-0.37-2.11,0.52-2.71
		c0.89-0.6,2.11-0.37,2.71,0.52c0.02,0.03,0.04,0.06,0.06,0.09l10.42,16.35c0.58,0.92,0.3,2.14-0.63,2.71
		C37.49,63.46,37.14,63.56,36.78,63.57z"/>
	<path class="st0" d="M15.65,56.67c-0.56,0-1.09-0.24-1.46-0.66c-0.71-0.8-0.64-2.03,0.16-2.74c0,0,0.01-0.01,0.01-0.01l10.7-9.47
		c0.81-0.72,2.05-0.65,2.77,0.16c0.72,0.81,0.65,2.05-0.16,2.77l-10.7,9.46C16.61,56.51,16.13,56.69,15.65,56.67z"/>
	<path class="st0" d="M56.5,27.24c-0.28,0-0.55-0.06-0.81-0.17l-17.17-7.73c-0.95-0.5-1.32-1.69-0.82-2.64
		c0.46-0.87,1.5-1.27,2.42-0.92l17.12,7.71c0.99,0.44,1.43,1.59,0.99,2.58C57.92,26.77,57.25,27.22,56.5,27.24z"/>
	<path class="st0" d="M92.82,95.71c-10.91,0.03-19.78-8.79-19.8-19.7c-0.03-10.91,8.79-19.78,19.7-19.8
		c10.91-0.03,19.78,8.79,19.8,19.7C112.54,86.81,103.72,95.67,92.82,95.71z M92.82,60.11c-8.75-0.03-15.87,7.04-15.9,15.79
		c-0.03,8.75,7.04,15.87,15.79,15.9c8.75,0.03,15.87-7.04,15.9-15.79c0-0.03,0-0.07,0-0.1C108.58,67.2,101.53,60.15,92.82,60.11
		L92.82,60.11z"/>
	<path class="st0" d="M92.61,84.61c-0.72,0-1.31-0.59-1.31-1.31V69.01c0-0.72,0.59-1.31,1.31-1.31c0.72,0,1.31,0.59,1.31,1.31l0,0
		V83.3C93.92,84.02,93.34,84.61,92.61,84.61z"/>
	<path class="st0" d="M99.75,77.47H85.48c-0.72,0-1.31-0.59-1.31-1.31s0.59-1.31,1.31-1.31h14.27c0.72,0,1.31,0.59,1.31,1.31
		S100.47,77.47,99.75,77.47z"/>
	<path class="st0" d="M110.26,94.53c-0.44,0-0.88-0.15-1.22-0.43l-4.91-3.91c-0.84-0.68-0.98-1.91-0.3-2.75
		c0.68-0.84,1.91-0.98,2.75-0.3l4.91,3.91c0.84,0.68,0.98,1.91,0.3,2.75C111.41,94.26,110.85,94.53,110.26,94.53L110.26,94.53z"/>
	<path class="st0" d="M121.53,108.48c-1.38,0.02-2.72-0.44-3.79-1.3l-8.53-6.91c-1.25-0.99-2.04-2.45-2.19-4.04
		c-0.18-1.58,0.29-3.17,1.3-4.4l0.51-0.64c1-1.27,2.46-2.08,4.07-2.25c1.58-0.18,3.17,0.29,4.4,1.3l8.53,6.89
		c1.24,1,2.03,2.46,2.19,4.04c0.18,1.58-0.29,3.17-1.3,4.4l0,0l-0.51,0.64c-0.99,1.27-2.44,2.08-4.04,2.27H121.53z M113.53,92.84
		h-0.23c-0.55,0.06-1.06,0.34-1.41,0.77l-0.51,0.64c-0.35,0.43-0.52,0.98-0.46,1.54c0.05,0.56,0.33,1.06,0.77,1.41l8.52,6.91
		c0.9,0.71,2.21,0.57,2.94-0.31l0.52-0.64c0.35-0.43,0.51-0.99,0.46-1.54c-0.06-0.55-0.33-1.06-0.77-1.41l-8.53-6.91
		C114.46,93,114,92.84,113.53,92.84z M125.25,104.39"/>
</g>
</svg>
