<?xml version="1.0" encoding="utf-8"?>
<!-- Generator: $$$/GeneralStr/196=Adobe Illustrator 27.6.0, SVG Export Plug-In . SVG Version: 6.00 Build 0)  -->
<svg version="1.1" id="Calque_1" xmlns="http://www.w3.org/2000/svg" xmlns:xlink="http://www.w3.org/1999/xlink" x="0px" y="0px"
	 viewBox="0 0 44 42" style="enable-background:new 0 0 44 42;" xml:space="preserve">
<style type="text/css">
	.st0{fill:#FFFFFF;}
</style>
<g>
	<g>
		<path class="st0" d="M30.9,14.5c-0.1-0.4-0.3-0.8-0.5-1.1c-0.1-0.1-0.1-0.1-0.2-0.2c-0.5-0.5-1.1-0.8-1.8-0.8H14.8
			c-0.7,0-1.4,0.3-1.8,0.8c-0.1,0.1-0.1,0.1-0.2,0.2c-0.3,0.3-0.5,0.7-0.5,1.1c0,0.2-0.1,0.3-0.1,0.5v9.5c0,0.4,0.1,0.7,0.2,1
			c0.1,0.3,0.3,0.6,0.5,0.8c0.1,0.1,0.1,0.1,0.2,0.2c0.4,0.4,1,0.6,1.7,0.6h13.5c0.6,0,1.2-0.2,1.7-0.6c0.1-0.1,0.1-0.1,0.2-0.2
			c0.2-0.2,0.4-0.5,0.5-0.8v0c0.1-0.3,0.2-0.7,0.2-1V15C30.9,14.8,30.9,14.6,30.9,14.5z M13.9,14.1c0.2-0.2,0.5-0.4,0.9-0.4h13.5
			c0.4,0,0.7,0.1,0.9,0.4c0,0,0.1,0.1,0.1,0.1l-7.1,6.2c-0.2,0.2-0.4,0.3-0.7,0.3c-0.2,0-0.5-0.1-0.7-0.3l-7.1-6.2
			C13.8,14.1,13.9,14.1,13.9,14.1z M13.5,24.5v-8.9l5.1,4.5L13.5,24.5C13.5,24.5,13.5,24.5,13.5,24.5z M28.3,25.7H14.8
			c-0.2,0-0.4-0.1-0.6-0.2l5.4-4.7l0.5,0.4c0.4,0.4,1,0.6,1.5,0.6c0.5,0,1.1-0.2,1.5-0.6l0.5-0.4l5.4,4.7
			C28.8,25.7,28.6,25.7,28.3,25.7z M29.6,24.5C29.6,24.5,29.6,24.5,29.6,24.5l-5.1-4.4l5.1-4.5V24.5z"/>
	</g>
	<path class="st0" d="M23.4,26.8c0,0.1,1.7,3.8,1.8,3.9c0.1,0.4,0.1,0.7,0.1,0.8c0,0.1,0,0.4-0.1,0.7c-0.1,0.5-0.4,0.9-0.8,1.3
		c-0.6,0.6-1.5,1-2.9,1l0,0c-8,0-14.6-6.5-14.6-14.6c0-4,1.6-7.7,4.3-10.3c2.6-2.6,6.3-4.3,10.3-4.3c4,0,7.7,1.6,10.3,4.3
		C34.4,12.3,36,16,36,20c0,2.5-0.6,4.8-1.7,6.9C33.7,28,33,29.1,32.1,30c-0.4,0.4-0.3,1,0,1.3c0.4,0.4,1,0.3,1.3,0
		c1-1.1,1.9-2.2,2.6-3.5c1.2-2.3,1.9-5,1.9-7.8c0-9.1-7.4-16.4-16.4-16.4C12.4,3.6,5,10.9,5,20c0,9.1,7.4,16.4,16.4,16.4h0l0,0
		c1.7,0,3.2-0.5,4.2-1.5c1-0.9,1.5-2.1,1.5-3.4c0-0.7-0.2-1.4-0.2-1.4c0-0.1-1.6-4-1.6-4.1"/>
</g>
</svg>
