<?xml version="1.0" encoding="utf-8"?>
<!-- Generator: $$$/GeneralStr/196=Adobe Illustrator 27.6.0, SVG Export Plug-In . SVG Version: 6.00 Build 0)  -->
<svg version="1.1" id="Calque_1" xmlns="http://www.w3.org/2000/svg" xmlns:xlink="http://www.w3.org/1999/xlink" x="0px" y="0px"
	 viewBox="0 0 113.5 116.2" style="enable-background:new 0 0 113.5 116.2;" xml:space="preserve">
<style type="text/css">
	.st0{display:none;fill:#FFFFFF;}
	.st1{fill:none;stroke:#FFFFFF;stroke-width:4;stroke-linejoin:round;stroke-miterlimit:10;}
	.st2{fill:none;stroke:#FFFFFF;stroke-width:4;stroke-linecap:round;stroke-linejoin:round;stroke-miterlimit:10;}
</style>
<rect x="-618.3" y="-208.5" width="279" height="249"/>
<path class="st0" d="M106.7,106.7l-2.5,2.5c-2.8,2.8-7.3,2.8-10.1,0L73.8,89c-2.3-2.3-2.6-5.9-1-8.6L61.8,69.3
	c-6,4.4-13.3,7.1-21.3,7.1c-19.8,0-35.8-16-35.8-35.8s16-35.8,35.8-35.8s35.8,16,35.8,35.8c0,9.2-3.5,17.6-9.2,23.9l10.8,10.8
	c2.7-1.6,6.3-1.3,8.6,1l20.2,20.2C109.5,99.4,109.5,103.9,106.7,106.7L106.7,106.7z M67.3,40.5c0-14.8-12-26.8-26.8-26.8
	s-26.8,12-26.8,26.8s12,26.8,26.8,26.8S67.3,55.3,67.3,40.5L67.3,40.5z"/>
<g>
	<path class="st1" d="M108.7,74.6c-4.4,0.8-8.1,0-9.7-2.8c-1.6-2.8-0.4-6.8,2.4-10.1c-3.6-3.6-7.7-6-12.5-7.3c-1.2,4-4,7.3-7.3,7.3
		s-6-2.8-7.3-7.3c-4.8,1.2-9.3,3.6-12.5,7.3c2.8,3.2,4,7.3,2.4,10.1c-1.6,2.8-5.6,3.6-9.7,2.8c-1.2,2.4-1.6,4.8-1.6,7.3
		c0,2.4,0.4,4.8,0.8,7.3c4.4-0.8,8.1,0,9.7,2.8c1.6,2.8,0.4,6.8-2.4,10.1c3.6,3.6,7.7,6,12.5,7.3c1.2-4,4-7.3,7.3-7.3s6,2.8,7.3,7.3
		c4.8-1.2,9.3-3.6,12.5-7.3c-2.8-3.2-4-7.3-2.4-10.1c1.6-2.8,5.6-3.6,9.7-2.8c0.8-2.4,0.8-4.8,0.8-7.3
		C108.7,79.5,109.1,77.1,108.7,74.6z"/>
	<circle class="st1" cx="81.3" cy="81.9" r="8.1"/>
	<line class="st2" x1="12.8" y1="41.6" x2="77.2" y2="41.6"/>
	<path class="st2" d="M34.9,25.9L30.1,9l0,0c9.3-4.8,20.5-4.8,29.8,0l0,0l-4.8,16.9"/>
	<path class="st2" d="M59.1,13c8.1,4.8,13.3,13.7,13.3,23.8v4.8"/>
	<path class="st2" d="M17.6,41.6v-4.8c0-10.1,5.2-18.9,13.3-23.8"/>
	<path class="st2" d="M24.9,41.6v8.1c0,8.5,3.6,16.1,10.1,20.1l0,0c0,8.5-5.2,15.7-12.9,17.7C13.2,89.9,6.7,98,4.7,107.7
		c0,1.2,0.8,2.4,2,2.4H45"/>
</g>
</svg>
